/* XPM */
static char *_f7070bb06ad453de3cc7a7b726eb8907kSFKpbX34udLfGi[] = {
/* columns rows colors chars-per-pixel */
"66 74 12 1 ",
"  c None",
". c #002B00",
"X c #740000",
"o c #B00000",
"O c #B07451",
"+ c #D5A264",
"@ c blue",
"# c #8A2284",
"$ c #CA5DC3",
"% c #0092FF",
"& c #CBFFFF",
"* c white",
/* pixels */
"                                                                  ",
"                                                                  ",
"                                                                  ",
"                                                                  ",
"                            ............                          ",
"                            ............                          ",
"                        ....$$$$$$$$$$$$....                      ",
"                        ....$$$$$$$$$$$$....                      ",
"                      ..$$$$$$##****##$$$$$$..                    ",
"                      ..$$$$$$##****##$$$$$$..                    ",
"                    ..$$$$####********####$$$$..                  ",
"                    ..$$$$####********####$$$$..                  ",
"                    ..$$##................##$$..                  ",
"                    ..$$##................##$$..                  ",
"                    ..##..$$$$$$$$$$$$$$$$..##..                  ",
"                    ..##..$$$$$$$$$$$$$$$$..##..                  ",
"                  ......##................##......                ",
"                  ......##................##......                ",
"                ..++++....++****++++****++....++++..              ",
"                ..++++....++****++++****++....++++..              ",
"                ..++++..++++**..++++..**++++..++++..              ",
"                ..++++..++++**..++++..**++++..++++..              ",
"                ..OOOO++++++**..++++..**++++++OOOO..              ",
"                ..OOOO++++++**..++++..**++++++OOOO..              ",
"                  ....OO++++..++++++++..++++OO....                ",
"                  ....OO++++..++++++++..++++OO....                ",
"                      ..++....OOOOOOOO....++..                    ",
"                      ..++....OOOOOOOO....++..                    ",
"                      ..OO++............++OO..                    ",
"                      ..OO++............++OO..                    ",
"                        ..++++........++++..                      ",
"                        ..++++........++++..                      ",
"                        ..OO++++++++++++OO..                      ",
"                        ..OO++++++++++++OO..                      ",
"                      ..@@..OO++++++++OO..@@..                    ",
"                      ..@@..OO++++++++OO..@@..                    ",
"                  ..$$@@%%%%............%%%%@@$$..                ",
"                  ..$$@@%%%%............%%%%@@$$..                ",
"                ..$$$$@@%%%%%%$$$$$$$$%%%%%%@@$$$$..              ",
"                ..$$$$@@%%%%%%$$$$$$$$%%%%%%@@$$$$..              ",
"                ..$$##@@%%%%%%$$$$$$$$%%%%%%@@##$$..              ",
"                ..$$##@@%%%%%%$$$$$$$$%%%%%%@@##$$..              ",
"              ..$$$$##@@****@@$$$$$$$$@@****@@##$$$$..            ",
"              ..$$$$##@@****@@$$$$$$$$@@****@@##$$$$..            ",
"              ..$$##....&&&&@@##$$$$##@@&&&&....##$$..            ",
"              ..$$##....&&&&@@##$$$$##@@&&&&....##$$..            ",
"              ..####**..@@@@@@########@@@@@@..**####..            ",
"              ..####**..@@@@@@########@@@@@@..**####..            ",
"                ..******..%%%%%%%%%%%%%%%%..******..              ",
"                ..******..%%%%%%%%%%%%%%%%..******..              ",
"                ..&&&&&&..%%%%%%%%%%%%%%%%..&&&&&&..              ",
"                ..&&&&&&..%%%%%%%%%%%%%%%%..&&&&&&..              ",
"                  ......@@%%%%%%%%%%%%%%%%@@......                ",
"                  ......@@%%%%%%%%%%%%%%%%@@......                ",
"                    ..@@@@%%@@%%%%%%%%@@%%@@@@..                  ",
"                    ..@@@@%%@@%%%%%%%%@@%%@@@@..                  ",
"                    ..@@%%%%%%@@....@@%%%%%%@@..                  ",
"                    ..@@%%%%%%@@....@@%%%%%%@@..                  ",
"                      ..@@@@%%@@....@@%%@@@@..                    ",
"                      ..@@@@%%@@....@@%%@@@@..                    ",
"                    ..XXXXXX@@@@....@@@@XXXXXX..                  ",
"                    ..XXXXXX@@@@....@@@@XXXXXX..                  ",
"                ....ooooooXXXX........XXXXoooooo....              ",
"                ....ooooooXXXX........XXXXoooooo....              ",
"              ......XXXXXXXXXX........XXXXXXXXXX......            ",
"              ......XXXXXXXXXX........XXXXXXXXXX......            ",
"                ....................................              ",
"                ....................................              ",
"                                                                  ",
"                                                                  ",
"                                                                  ",
"                                                                  ",
"                                                                  ",
"                                                                  "
};
