/* XPM */
static char *peach_race41678218050[] = {
/* columns rows colors chars-per-pixel */
"64 64 14 1 ",
"  c None",
". c #002828",
"X c #780000",
"o c #284848",
"O c #486868",
"+ c #B00000",
"@ c #B87800",
"# c #A07058",
"$ c #F85858",
"% c #D89820",
"& c #E8B8A0",
"* c #F8B0B0",
"= c #C8E8E8",
"- c #F8F8F8",
/* pixels */
"                      ....----**..                              ",
"                      ....----**..                              ",
"                    ..--**......**..                            ",
"                    ..--**......**..                            ",
"                    ..**..@@@@@@......                          ",
"                    ..**..@@@@@@......                          ",
"                  ..@@..@@%%%%%%%%%%%%..                        ",
"                  ..@@..@@%%%%%%%%%%%%..                        ",
"                ..@@%%%%%%%%%%%%%%%%%%@@..                      ",
"                ..@@%%%%%%%%%%%%%%%%%%@@..                      ",
"              ..@@%%%%%%%%%%%%%%%%%%%%%%@@..                    ",
"              ..@@%%%%%%%%%%%%%%%%%%%%%%@@..                    ",
"              ..@@%%%%%%%%%%%%%%%%%%%%%%@@..                    ",
"              ..@@%%%%%%%%%%%%%%%%%%%%%%@@..                    ",
"              ..@@%%%%%%%%%%%%%%%%%%%%@@..                      ",
"              ..@@%%%%%%%%%%%%%%%%%%%%@@..                      ",
"                ..####@@%%%%%%%%%%%%%%@@..                      ",
"                ..####@@%%%%%%%%%%%%%%@@..                      ",
"                  ..@@@@%%%%%%%%%%%%%%@@..                      ",
"                  ..@@@@%%%%%%%%%%%%%%@@..                      ",
"                  ..--@@%%%%%%%%%%%%%%@@..                      ",
"                  ..--@@%%%%%%%%%%%%%%@@..                      ",
"                  ..$$@@%%%%%%%%%%%%%%%%@@..                    ",
"                  ..$$@@%%%%%%%%%%%%%%%%@@..                    ",
"                    ..@@@@%%%%%%%%%%%%%%@@..                    ",
"                    ..@@@@%%%%%%%%%%%%%%@@..                    ",
"                    ..@@@@%%%%%%%%%%%%%%@@....                  ",
"                    ..@@@@%%%%%%%%%%%%%%@@....                  ",
"                  ....@@@@@@%%%%@@%%%%@@@@..**..                ",
"                  ....@@@@@@%%%%@@%%%%@@@@..**..                ",
"                ..**..@@@@@@@@%%@@%%%%@@@@..**..                ",
"                ..**..@@@@@@@@%%@@%%%%@@@@..**..                ",
"              ..****$$..@@@@@@@@@@%%%%%%@@..$$..                ",
"              ..****$$..@@@@@@@@@@%%%%%%@@..$$..                ",
"              ..$$**$$$$..@@@@..@@@@@@@@..@@..                  ",
"              ..$$**$$$$..@@@@..@@@@@@@@..@@..                  ",
"          ..----..$$++++..@@@@..@@......++..                    ",
"          ..----..$$++++..@@@@..@@......++..                    ",
"          ..----........++..@@....++++++....                    ",
"          ..----........++..@@....++++++....                    ",
"            ....&&&&&&..++++....++XXXXXX++......                ",
"            ....&&&&&&..++++....++XXXXXX++......                ",
"    ..........$$......++++++..++XXXXooooXX++......              ",
"    ..........$$......++++++..++XXXXooooXX++......              ",
"  ..OOOOOOOO++++$$******++..++XXXXoooooooo................      ",
"  ..OOOOOOOO++++$$******++..++XXXXoooooooo................      ",
"  ..++oooooo++++$$$$$$++++++..XXoo........========OOOOOOOO..    ",
"  ..++oooooo++++$$$$$$++++++..XXoo........========OOOOOOOO..    ",
"  ..oo++....++++++++..........oo..========XXXXXX..==oooooo..    ",
"  ..oo++....++++++++..........oo..========XXXXXX..==oooooo..    ",
"  ..**++....++++++..ooOOOOOOOO..==..XXXXXX======..==........    ",
"  ..**++....++++++..ooOOOOOOOO..==..XXXXXX======..==........    ",
"  ..........++++..oo++oooooooo..==..======XXXXXX..==........    ",
"  ..........++++..oo++oooooooo..==..======XXXXXX..==........    ",
"    ........----..++oo..........==..XXXXXXXXXX  ..--........    ",
"    ........----..++oo..........==..XXXXXXXXXX  ..--........    ",
"              ....++$$..........--..  XXXX======----......      ",
"              ....++$$..........--..  XXXX======----......      ",
"                ..oo++..........----======........              ",
"                ..oo++..........----======........              ",
"                  ..............  ........                      ",
"                  ..............  ........                      ",
"                    ..........                                  ",
"                    ..........                                  "
};
