/* XPM */
static char *_0b8046bdf65457ba59d94ad96972abebKmHQrfpidWqtwf0[] = {
/* columns rows colors chars-per-pixel */
"64 64 11 1 ",
"  c black",
". c gray22",
"X c #464646",
"o c #555555",
"O c #656565",
"+ c gray46",
"@ c #A70003",
"# c #F5AB09",
"$ c #868686",
"% c #979797",
"& c #F6F6F6",
/* pixels */
"................................................................",
"...X.X.XX.o.o.X$...X.X.XX.o.o.X$...X.X.XX.o.o.X$...X.X.XX.o.o.X$",
".oX+XXOoOoooOoO$.oX+XXOoOoooOoO$.oX+XXOoOoooOoO$.oX+XXOoOoooOoO$",
"..OoOO+oo+OOo+o%..OoOO+oo+OOo+o%..OoOO+oo+OOo+o%..OoOO+oo+OOo+o%",
".XoXoOoOOO+O$OO%.XoXoOoOOO+O$OO%.XoXoOoOOO+O$OO%.XoXoOoOOO+O$OO%",
"..OOo+Oo+$O++oO$..OOo+Oo+$O++oO$..OOo+Oo+$O++oO$..OOo+Oo+$O++oO$",
".XXO$O%O$+$O$O$%.XXO$O%O$+$O$O$%.XXO$O%O$+$O$O$%.XXO$O%O$+$O$O$%",
".$$%$%%%%%%$%%%%.$$%$%%%%%%$%%%%.$$%$%%%%%%$%%%%.$$%$%%%%%%$%%%%",
"................................................................",
"X.o.o.X$...X.X.XX.o.o.X$...X.X.XX.o.o.X$...X.X.XX.o.o.X$...X.X.X",
"OoooOoO$.oX+XXOoOoooOoO$.oX+XXOoOoooOoO$.oX+XXOoOoooOoO$.oX+XXOo",
"o+OOo+o%..OoOO+oo+OOo+o%..OoOO+oo+OOo+o%..OoOO+oo+OOo+o%..OoOO+o",
"OO+O$OO%.XoXoOoOOO+O$OO%.XoXoOoOOO+O$OO%.XoXoOoOOO+O$OO%.XoXoOoO",
"+$O++oO$..OOo+Oo+$O++oO$..OOo+Oo+$O++oO$..OOo+Oo+$O++oO$..OOo+Oo",
"$+$O$O$%.XXO$O%O$+$O$O$%.XXO$O%O$+$O$O$%.XXO$O%O$+$O$O$%.XXO$O%O",
"%%%$%%%%.$$%$%%%%%%$%%%%.$$%$%%%%%%$%%%%.$$%$%%%%%%$%%%%.$$%$%%%",
"................                ................................",
".....X..X.o.o.XO @@@@@@@@@@@@@@ ...X.X.XX.o.o.X$...X.X.XX.o.o.X$",
"..Xo...oXO.X.OXO @############# .oX+XXOoOoooOoO$.oX+XXOoOoooOoO$",
"..o.OXo.oooOoo.+ @###      #### ..OoOO+oo+OOo+o%..OoOO+oo+OOo+o%",
".X.oo.oo.oXX.o+o @##        ### .XoXoOoOOO+O$OO%.XoXoOoOOO+O$OO%",
"..oXoXOXooXoO.O+ @##  ####  ### ..OOo+Oo+$O++oO$..OOo+Oo+$O++oO$",
".XXOXoXoXoOoXooO @##  ##    ### .XXO$O%O$+$O$O$%.XXO$O%O$+$O$O$%",
".O+o+o++O+oOOO++ @#####    #### .$$%$%%%%%%$%%%%.$$%$%%%%%%$%%%%",
"................ @#####  ###### ................................",
"..o.o.X$...X.X.X @#####  ###### X.o.o.X$...X.X.XX.o.o.X$...X.X.X",
".OooOOO$.oX+XXOo @############& OoooOoO$.oX+XXOoOoooOoO$.oX+XXOo",
".+OOo+o%..OoOO+o @#####  ###### o+OOo+o%..OoOO+oo+OOo+o%..OoOO+o",
".O+O$+$%.XoXoOoO @#####  #####& OO+O$OO%.XoXoOoOOO+O$OO%.XoXoOoO",
".$$++O$$..OOo+Oo @############& +$O++oO$..OOo+Oo+$O++oO$..OOo+Oo",
".+$%$%$%.XXO$O%O @##########&&& $+$O$O$%.XXO$O%O$+$O$O$%.XXO$O%O",
".%%$%%%%.$$%$%%%                %%%$%%%%.$$%$%%%%%%$%%%%.$$%$%%%",
"................................................................",
"...X.X.XX.o.o.X$...X.X.XX.o.o.X$...X.X.XX.o.o.X$...X.X.XX.o.o.X$",
".oX+XXOoOoooOoO$.oX+XXOoOoooOoO$.oX+XXOoOoooOoO$.oX+XXOoOoooOoO$",
"..OoOO+oo+OOo+o%..OoOO+oo+OOo+o%..OoOO+oo+OOo+o%..OoOO+oo+OOo+o%",
".XoXoOoOOO+O$OO%.XoXoOoOOO+O$OO%.XoXoOoOOO+O$OO%.XoXoOoOOO+O$OO%",
"..OOo+Oo+$O++oO$..OOo+Oo+$O++oO$..OOo+Oo+$O++oO$..OOo+Oo+$O++oO$",
".XXO$O%O$+$O$O$%.XXO$O%O$+$O$O$%.XXO$O%O$+$O$O$%.XXO$O%O$+$O$O$%",
".$$%$%%%%%%$%%%%.$$%$%%%%%%$%%%%.$$%$%%%%%%$%%%%.$$%$%%%%%%$%%%%",
"................................................................",
"..o.o.X$...X.X.XX.o.o.X$...X.X.XX.o.o.X$...X.X.XX.o.o.X$...X.X.X",
".OooOOO$.oX+XXOoOoooOoO$.oX+XXOoOoooOoO$.oX+XXOoOoooOoO$.oX+XXOo",
".+OOo+o%..OoOO+oo+OOo+o%..OoOO+oo+OOo+o%..OoOO+oo+OOo+o%..OoOO+o",
".O+O$+$%.XoXoOoOOO+O$OO%.XoXoOoOOO+O$OO%.XoXoOoOOO+O$OO%.XoXoOoO",
".$$++O$$..OOo+Oo+$O++oO$..OOo+Oo+$O++oO$..OOo+Oo+$O++oO$..OOo+Oo",
".+$%$%$%.XXO$O%O$+$O$O$%.XXO$O%O$+$O$O$%.XXO$O%O$+$O$O$%.XXO$O%O",
".%%$%%%%.$$%$%%%%%%$%%%%.$$%$%%%%%%$%%%%.$$%$%%%%%%$%%%%.$$%$%%%",
"................................................................",
"...X.X.XX.o.o.X$...X.X.XX.o.o.X$...X.X.XX.o.o.X$...X.X.XX.o.o.X$",
".oX+XXOoOoooOoO$.oX+XXOoOoooOoO$.oX+XXOoOoooOoO$.oX+XXOoOoooOoO$",
"..OoOO+oo+OOo+o%..OoOO+oo+OOo+o%..OoOO+oo+OOo+o%..OoOO+oo+OOo+o%",
".XoXoOoOOO+O$OO%.XoXoOoOOO+O$OO%.XoXoOoOOO+O$OO%.XoXoOoOOO+O$OO%",
"..OOo+Oo+$O++oO$..OOo+Oo+$O++oO$..OOo+Oo+$O++oO$..OOo+Oo+$O++oO$",
".XXO$O%O$+$O$O$%.XXO$O%O$+$O$O$%.XXO$O%O$+$O$O$%.XXO$O%O$+$O$O$%",
".$$%$%%%%%%$%%%%.$$%$%%%%%%$%%%%.$$%$%%%%%%$%%%%.$$%$%%%%%%$%%%%",
"................................................................",
"..o.o.X$...X.X.XX.o.o.X$.....X..X.o.o.XO...X.X.XX.o.o.X$...X.X.X",
".OooOOO$.oX+XXOoOoooOoO$..Xo...oXO.X.OXO.oX+XXOoOoooOoO$.oX+XXOo",
".+OOo+o%..OoOO+oo+OOo+o%..o.OXo.oooOoo.+..OoOO+oo+OOo+o%..OoOO+o",
".O+O$+$%.XoXoOoOOO+O$OO%.X.oo.oo.oXX.o+o.XoXoOoOOO+O$OO%.XoXoOoO",
".$$++O$$..OOo+Oo+$O++oO$..oXoXOXooXoO.O+..OOo+Oo+$O++oO$..OOo+Oo",
".+$%$%$%.XXO$O%O$+$O$O$%.XXOXoXoXoOoXooO.XXO$O%O$+$O$O$%.XXO$O%O",
".%%$%%%%.$$%$%%%%%%$%%%%.O+o+o++O+oOOO++.$$%$%%%%%%$%%%%.$$%$%%%"
};
