/* XPM */
static char *efae8c1a6bd64b53d2727663b1099a14hRqLeP4Ch6ZU211U[] = {
/* columns rows colors chars-per-pixel */
"64 64 18 1 ",
"  c black",
". c #011278",
"X c #583070",
"o c #A01300",
"O c #B81800",
"+ c #F82400",
"@ c #C04800",
"# c #F87800",
"$ c #00A800",
"% c #00F800",
"& c #009858",
"* c #B8B800",
"= c #F8B800",
"- c #F8F800",
"; c #3058F8",
": c #B878F8",
"> c #01E0A8",
", c #F8F8F8",
/* pixels */
"                                                                ",
"&&&&&&& &&&&&&& &&&&&&& &&&&&&& &&&&&&& &&&&&&& &&&&&&& &&&&&&& ",
">>>>>>& >>>>>>& >>>>>>& >>>>>>& >>>>>>& >>>>>>& >>>>>>& >>>>>>& ",
">>>>>>& >>>>>>& >>>>>>& >>>>>>& >>>>>>& >>>>>>& >>>>>>& >>>>>>& ",
">>>>>>& >>>>>>& >>>>>>& >>>>>>& >>>>>>& >>>>>>& >>>>>>& >>>>>>& ",
">>>>>>& >>>>>>& >>>>>>& >>>>>>& >>>>>>& >>>>>>& >>>>>>& >>>>>>& ",
">>>>>>& >>>>>>& >>>>>>& >>>>>>& >>>>>>& >>>>>>& >>>>>>& >>>>>>& ",
">>>>>>& >>>>>>& >>>>>>& >>>>>>& >>>>>>& >>>>>>& >>>>>>& >>>>>>& ",
"                                                                ",
"....... .......  OOOOOOOOOOOOOO ....... ....... ....... ....... ",
";;;;;;. ;;;;;;.  =============O ;;;;;;. ;;;;;;. ;;;;;;. ;;;;;;. ",
";;;;;;. ;;;;;;.  ====      ===O ;;;;;;. ;;;;;;. ;;;;;;. ;;;;;;. ",
";;;;;;. ;;;;;;.  ===        ==O ;;;;;;. ;;;;;;. ;;;;;;. ;;;;;;. ",
";;;;;;. ;;;;;;.  ===  ====  ==O ;;;;;;. ;;;;;;. ;;;;;;. ;;;;;;. ",
";;;;;;. ;;;;;;.  ===  ==    ==O ;;;;;;. ;;;;;;. ;;;;;;. ;;;;;;. ",
";;;;;;. ;;;;;;.  ======    ===O ;;;;;;. ;;;;;;. ;;;;;;. ;;;;;;. ",
"                 ======  =====O                                 ",
"XXXXXXX XXXXXXX  ======  =====O XXXXXXX XXXXXXX XXXXXXX XXXXXXX ",
"::::::X ::::::X  =============O ::::::X ::::::X ::::::X ::::::X ",
"::::::X ::::::X  ======  =====O ::::::X ::::::X ::::::X ::::::X ",
"::::::X ::::::X  ,=====  =====O ::::::X ::::::X ::::::X ::::::X ",
"::::::X ::::::X  ,============O ::::::X ::::::X ::::::X ::::::X ",
"::::::X ::::::X  ,,,=,========O ::::::X ::::::X ::::::X ::::::X ",
"::::::X ::::::X                 ::::::X ::::::X ::::::X ::::::X ",
"                                                                ",
"ooooooo ooooooo ooooooo ooooooo ooooooo ooooooo ooooooo ooooooo ",
"++++++o ++++++o ++++++o ++++++o ++++++o ++++++o ++++++o ++++++o ",
"++++++o ++++++o ++++++o ++++++o ++++++o ++++++o ++++++o ++++++o ",
"++++++o ++++++o ++++++o ++++++o ++++++o ++++++o ++++++o ++++++o ",
"++++++o ++++++o ++++++o ++++++o ++++++o ++++++o ++++++o ++++++o ",
"++++++o ++++++o ++++++o ++++++o ++++++o ++++++o ++++++o ++++++o ",
"++++++o ++++++o ++++++o ++++++o ++++++o ++++++o ++++++o ++++++o ",
"                                                                ",
"@@@@@@@ @@@@@@@ @@@@@@@ @@@@@@@ @@@@@@@  OOOOOOOOOOOOOO @@@@@@@ ",
"######@ ######@ ######@ ######@ ######@  =============O ######@ ",
"######@ ######@ ######@ ######@ ######@  ====      ===O ######@ ",
"######@ ######@ ######@ ######@ ######@  ===        ==O ######@ ",
"######@ ######@ ######@ ######@ ######@  ===  ====  ==O ######@ ",
"######@ ######@ ######@ ######@ ######@  ===  ==    ==O ######@ ",
"######@ ######@ ######@ ######@ ######@  ======    ===O ######@ ",
"                                         ======  =====O         ",
"******* ******* ******* ******* *******  ======  =====O ******* ",
"------* ------* ------* ------* ------*  =============O ------* ",
"------* ------* ------* ------* ------*  ======  =====O ------* ",
"------* ------* ------* ------* ------*  ,=====  =====O ------* ",
"------* ------* ------* ------* ------*  ,============O ------* ",
"------* ------* ------* ------* ------*  ,,,=,========O ------* ",
"------* ------* ------* ------* ------*                 ------* ",
"                                                                ",
"$$$$$$$ $$$$$$$ $$$$$$$ $$$$$$$ $$$$$$$ $$$$$$$ $$$$$$$ $$$$$$$ ",
"%%%%%%$ %%%%%%$ %%%%%%$ %%%%%%$ %%%%%%$ %%%%%%$ %%%%%%$ %%%%%%$ ",
"%%%%%%$ %%%%%%$ %%%%%%$ %%%%%%$ %%%%%%$ %%%%%%$ %%%%%%$ %%%%%%$ ",
"%%%%%%$ %%%%%%$ %%%%%%$ %%%%%%$ %%%%%%$ %%%%%%$ %%%%%%$ %%%%%%$ ",
"%%%%%%$ %%%%%%$ %%%%%%$ %%%%%%$ %%%%%%$ %%%%%%$ %%%%%%$ %%%%%%$ ",
"%%%%%%$ %%%%%%$ %%%%%%$ %%%%%%$ %%%%%%$ %%%%%%$ %%%%%%$ %%%%%%$ ",
"%%%%%%$ %%%%%%$ %%%%%%$ %%%%%%$ %%%%%%$ %%%%%%$ %%%%%%$ %%%%%%$ ",
"                                                                ",
"&&&&&&& &&&&&&& &&&&&&& &&&&&&& &&&&&&& &&&&&&& &&&&&&& &&&&&&& ",
">>>>>>& >>>>>>& >>>>>>& >>>>>>& >>>>>>& >>>>>>& >>>>>>& >>>>>>& ",
">>>>>>& >>>>>>& >>>>>>& >>>>>>& >>>>>>& >>>>>>& >>>>>>& >>>>>>& ",
">>>>>>& >>>>>>& >>>>>>& >>>>>>& >>>>>>& >>>>>>& >>>>>>& >>>>>>& ",
">>>>>>& >>>>>>& >>>>>>& >>>>>>& >>>>>>& >>>>>>& >>>>>>& >>>>>>& ",
">>>>>>& >>>>>>& >>>>>>& >>>>>>& >>>>>>& >>>>>>& >>>>>>& >>>>>>& ",
">>>>>>& >>>>>>& >>>>>>& >>>>>>& >>>>>>& >>>>>>& >>>>>>& >>>>>>& "
};
