/* XPM */
static char *_3aa8efcc9484c20a7ae9710e7a35635NUnb1EpLMAQOGkxt[] = {
/* columns rows colors chars-per-pixel */
"98 99 66 1 ",
"  c None",
". c #000000",
"X c #080B06",
"o c #0A0D08",
"O c #0C100A",
"+ c #10160E",
"@ c #151B12",
"# c #181F14",
"$ c #162015",
"% c #192015",
"& c #1C2619",
"* c #1E281A",
"= c #222D1D",
"- c #24301F",
"; c #273321",
": c #293522",
"> c #2B3925",
", c #303F2A",
"< c #36462E",
"1 c #37482F",
"2 c #3C4F33",
"3 c #3E5235",
"4 c #415638",
"5 c #455C3B",
"6 c #485E3E",
"7 c #48603F",
"8 c #4A6240",
"9 c #4F6A44",
"0 c #506B46",
"q c #57724A",
"w c #58734C",
"e c #5B784E",
"r c #5E7C51",
"t c #607E53",
"y c #638255",
"u c #668658",
"i c #678959",
"p c #6A8C5B",
"a c #6D915F",
"s c #6F9360",
"d c #719562",
"f c #769B66",
"g c #789E67",
"h c #799F68",
"j c #79A067",
"k c #7BA36A",
"l c #7FA86E",
"z c #80A86E",
"x c #83AE71",
"c c #86B173",
"v c #89B575",
"b c #8EBB7A",
"n c #90BE7C",
"m c #93C27E",
"M c #96C580",
"N c #97C882",
"B c #9BCE85",
"V c #9DD087",
"C c #9DD088",
"Z c #A2D68B",
"A c #A6DB8E",
"S c #A7DD90",
"D c #A9DF91",
"F c #ABE293",
"G c #B0E997",
"H c #B1EA98",
/* pixels */
"                                                                                                  ",
"                                                                                                  ",
"                                                                                                  ",
"                                                                                                  ",
"                                                                                                  ",
"                                           ............                                           ",
"                                           ............                                           ",
"                                           ............                                           ",
"                                           ............                                           ",
"                                           ............                                           ",
"                                      ....X8fddddddddf8XX...                                      ",
"                                      ....XrFFFDFFFFFFrX....                                      ",
"                                      .....tFFFFFFFFFGt.....                                      ",
"                                      ....XtGFFFFFFFFFtX....                                      ",
"                                      .....tFFFFFFFFFGrX....                                      ",
"                                      ....XrGFFFFFFFFFt.....                                      ",
"                                      ....XtFFFFFFFFFFy.....                                      ",
"                                      .....tGFFFDFFFFGrX....                                      ",
"                                      .....tGFFFFDFFFFy.....                                      ",
"                                      ....XtFFFFFFFFFFyX....                                      ",
"                                      .....rFFFFFFFFFFe.....                                      ",
"                                 ... :0wqqwcFDFFFFFFFFcwqqw0> ...                                 ",
"                                .....<MDADADFFFFFFFFFFDAAAFM<.....                                ",
"                                .....2CFFFFFFFFFFFFDFFFFFFFB1.....                                ",
"                                .....<BFFFFDFFFFFFFDFDFFFFFB2.....                                ",
"                                .....<BFFFFFFFFFFFFFFFFFFFFB<.....                                ",
"                                .....1BFFFFFFFFDFFFFFFFFFFFB<.....                                ",
"    .................................1BGFFDFFFFFFFFFFFFFFFFB<......................X..........    ",
"    .................................1BFFFFFDFFFFFFFFFFFFFFB1.................................    ",
"    .................................1BFFFFFFFFFDFFFFFDFFFGB<.................................    ",
"    .................................<BFDFFFFFFFDFFFFFFFFFFB<.................................    ",
"    .................................<BGFFFFFFFFFFFFFFFFFFFN<.................................    ",
"    .....o;>>>:<222222222322232222321eZFFFFFFDFFFFFFFFDFFFFCr132222232222224414414<>>>>-O.....    ",
"    .....-uddddvCBVVBVBBBBBBBBCCVBVVBZFFFFFFFFDFFFFFFFFFFFFDZCBCBBBVBBBBBBBBBVNBBBvdssdi=.....    ",
"    .....:dzkklNGFFGGFFGGFFGFGFFFFGFGFFFFFFFFFFFFFFDFFFFFFDFFFFGGFGFGFGGGFFFFGGFFGmzzzzd;.....    ",
"    .....:dkkkkMFFFFFFFFFFFFFFFFFFFFFFFFFDFFFFFFFFFFFFFFFFFFFFFFFDFFFFDFFFFFFFFFFFmzdzzs;.....    ",
"    .....;dkjkkMFFFFFFFFFFFFFFFFFFFFFFFFFFDFDFFFFFFFFFFFFFFFFFFFDFFFFFFFFFFFFFFFFFnzzzzp;.....    ",
"    .....;ahgfhMFDFDDDFFFFFFDFFFFFFFFDSSDDDDFFFFFFFFFDDSSDDDFFFFFFFFFFFFFFFFFDDDFFmgdgzp;.....    ",
"         &,<<<<unnnbMAFFFFFDFFFFFFFFFb05666lFFFFFFFFFFl65559bFFFFFFFFFDFFFFFAmnnbnp<,<,>=         ",
"          .....4zhhgxZFFFFFFFFFFFFFFHd+....rGFFFDFFFFFrX...OfGFFFFFFFDFFFFFFZxgggz5.....          ",
"          ....X5zgzgxZDFFFFFFFFFFFFFHfO....yGDFFFFFFFFt....+fHFFFFFFFFFFFFFFAxhkzh5.....          ",
"          .....5zhhgxZFFFFFFFFDFFFFFGf+...XtGFDFFFFFFGt....+fGFFFDFFFFFFFFFFZxhhgz6.....          ",
"          .....5zzzzvZGFFFFFFFFFDFFFHf+....tFFFFDFFFFGtX...+fHFDFFFFDFFFFGFFZvllzx6.....          ",
"          ....X2ttttaMZZZCSFFFFFFFFFGf+...XtGFDFFFFFFFrX...+fHFFFFFFFFFAZZZAmptttt4.....          ",
"               @#@@@>acxxxMFFFFFFFFFGf+....tFFFFFFFFFGt....+dHFFFFDFFFFmzxxva>@@@@@               ",
"               .....#tzhhhbDFFDFFFFFGf+...XtGFFFFFFFFFtX...+fHFFFFFFFFFnghhkt#.....               ",
"               .....#tzhhknFFFFFFFFFGfO....tFFFFFFDFFGrX...+fGFFFFFFFFDnhkkzy%.....               ",
"               .....#tzzkknDFFFFFFFDGf+...XrGFFFFFFFFFt....OfHFFFFFFDFFnkkhzy%.....               ",
"               .....%yljkjnFFFFDFFFFHf+...XtGFFFFFDFDGt....+fHFDFFFDFFDnzhzzy#.....               ",
"                ....$35555iMMMMBAFFFHf+....tFFFFFFFFDGtX...+fHFFFANNMNmp45453#....                ",
"                     .....<hkkhlBFFFHf+...XrGDFFFFFFFGrX...+fHFFFVzkzzf1.....                     ",
"                     .....1hkkjzBFFFFf+....rGFFFFFFFFFt....+fHFFFBzhhhf1.....                     ",
"                     .....1jjkkzCGFFHf+...XrFFFDFDFFFGtX...+fGDFFCzkkhh1.....                     ",
"                     .....1gkkjlBFFFHd+....rGFFFFFDFFFr....+fGDFFBzhkkh1.....                     ",
"                     .....1gkkjlBFFFHk-+@@#pGFFFFFFFFGp#@@+=kHFFGBzhkkh1.....                     ",
"                     .....1hkkklBFFFFBlhhhkMFDFFFFFFFFMhjhhlCFFFFBzkhkh1.....                     ",
"                     .....1hhkhzBGFFFFHHHHHGDFFFFFFFFFGHHHHHFFFFFCzkkkh1.....                     ",
"                     .....1hkkkzBFFFFFFFFFFFFFFFFFFFFFDDFFFFFFFFFCzhkkh<.....                     ",
"                     .....<hkkhzBGFFFFFFFFFDFFDFFFFDFFFFFFFFFFFFFClkhkh<.....                     ",
"                     .....<gkhhzBFFDFFFFFFFFFFFFDFFFFFFFFFFFFFFFFBlkkhg<.....                     ",
"                     =;--=0cvvvbZFFFFFFFFFFFFFFFFFFFFFFFFFFFFDFFFZvcvvc0==;;=                     ",
"               .....%thhgfbDDDDDDFFFDFFFFFFFFDFFFFFFFDFFDFFFFFFFFDFDDDDbfgght#.....               ",
"               .....%yljkjnFFFFDFFFFDFFFFFFFFFFFFFFFFFFFFFFFFFFFFFFFFFDnjkjly%.....               ",
"               .....%ylkkjbFFFFFFFFFFFFFFDFFFFFFFDFFFFFFFFFFDFFFFFFFFFFnkkjly%....X               ",
"               .....%yzjkhnFFFFFFFFFDFFFFFFFFFFFFFFFFFFFFFFFFFFFDFFFFFDbjkklt#.....               ",
"               .....%yzkkknDFFFFFFFFFFFDFFFDDDDDDDDSDDDFFFFFDFFFFFFDFFFmhkkzy%.....               ",
"               .....%yzkkjnFFFFFFFFFFFFFFFDBnnnnnnnmmbBFFDFFFFFFFFFFFFDbkkhly%.....               ",
"               .....#yljkhnFFFDFFDFFFFFFFFFbghhghhhhhhbDFFFFFFFFFFFFFFFmhkkly%.....               ",
"               .....%yljkjnFFFFFFFFFFFFFFFFnkkkkkkkkhkmDFFFFFFFFFFFFFFFbjkkly%.....               ",
"               .....%ylljjnDFFDFFFFFFFFFFFDnhkkkkkhkkhmDFFFFFFFFFFFFFDFnhkkly%.....               ",
"               .....%yljkjnFFFFFFFFFFFFFFFFMkkklkzlkkkmDFFFFFGFFFFFFFFFbghhly#.....               ",
"               @@@@O:axzxxmDFFFFSZZSZZSCZZZliiiiupiiiuxZZZSZZZZZCSDFFFFMxxxxa:+@@@@               ",
"          .....5dssahCDDSADFFFFSbllllllllll4oOOOooOOOo3llllllllllbDFDFFDSSSDBksssd4X....          ",
"          .....6lkkkcZFFFFDFFFFAvhkjkkkjjgg<..........1ghjkjjjkkgvDFFFFFFFFFZckkkl5.....          ",
"          .....5lkkhxZFFFFFFFFFDvkkkkkjkjkh<..........1gkkkkkkkkkvSFFFFFFFFFZxhkjl5.....          ",
"          .....5kkkkxZFFFFFFFFFAvjkkkkkkkkh<..........1gjkkkkkkkgvSFFFFFFFFFZxhkjl5.....          ",
"          ....X5lkkhxZFFDDFFDFFSvjjkkjkjjjj1..........2fkjjkjkjjgvDFFFFFFFFFZxhkjk5X....          ",
"          .....5kkkhlmNNMBMMNNBby5888888886>..........:8888888886ybNNMNMNNNNMlkhkl5.....          ",
"          .....5kkkkkhhhkhhhhhhp-..........            ..........;pkhhhhgggghhkkkk5.....          ",
"          .....5kkkkhkkkkkkkkkkd;..........            ..........:skkkkkkkkkkkkkkl5.....          ",
"          .....5lkkkkkkkkkkkkkks;..........            ..........;skkkkjkkkkkkkkkl5.....          ",
"          ....X5kkkkkkkkkkkkkkkd:..........            ..........;dlkkkkkkkkkjkkkk4X....          ",
"          X.X.X6lhkhkffgfhfhffha:..........            ..........:phgfgfffffhjkjkk6XXXXX          ",
"    .....-euyyydkkkli>@%########                                  #%%#$%%%##>ilkkjdyytte;.....    ",
"    .....:dzlllkkhklt#..........                                  ..........#yljkkkzlkzd:.....    ",
"    .....:aljkhkkkhly#..........                                  ..........%yljkkkkkkks;.....    ",
"    .....;skkkljkkkly%..........                                  ..........%yzjkkhkkkks;.....    ",
"    .....;dzkkjkkkkly%..........                                  ..........%uzkkkkkkkzd;.....    ",
"    .....*qyryttttty0%..........                                  ..........%0ytttttyryq*.....    ",
"    .................                                                        .................    ",
"    .................                                                        .................    ",
"    .................                                                        .................    ",
"    .................                                                        .................    ",
"    ................X                                                        .......X.........    ",
"                                                                                                  ",
"                                                                                                  ",
"                                                                                                  ",
"                                                                                                  ",
"                                                                                                  "
};
