/* XPM */
static char *_f9a29a34aed4eaff86f736d20d379c1VNMMwUEwDlruuz5R[] = {
/* columns rows colors chars-per-pixel */
"64 64 13 1 ",
"  c None",
". c #002727",
"X c #006F00",
"o c #274848",
"O c #486767",
"+ c #8F0000",
"@ c #F80000",
"# c #B77800",
"$ c #00A700",
"% c #F8B700",
"& c #6F8F8F",
"* c #C8E8E8",
"= c #F8F8F8",
/* pixels */
"                      ....++++++++++++....                      ",
"                      ....++++++++++++....                      ",
"            ..      ..++@@@@@@$$$$@@@@@@++..      ..            ",
"            ..      ..++@@@@@@$$$$@@@@@@++..      ..            ",
"          ..==........$$====..$$$$..====$$........==..          ",
"          ..==........$$====..$$$$..====$$........==..          ",
"          ..%%======..$$$$====XXXX====$$$$..======%%..          ",
"          ..%%======..$$$$====XXXX====$$$$..======%%..          ",
"      ........%%%%%%..####$$..%%%%..$$####..%%%%%%........      ",
"      ........%%%%%%..####$$..%%%%..$$####..%%%%%%........      ",
"    ..%%%%%%........##%%%%%%%%%%%%%%%%%%%%##........%%%%%%..    ",
"    ..%%%%%%........##%%%%%%%%%%%%%%%%%%%%##........%%%%%%..    ",
"  ..##%%%%%%##....##%%%%%%==########==%%%%%%##....##%%%%%%##..  ",
"  ..##%%%%%%##....##%%%%%%==########==%%%%%%##....##%%%%%%##..  ",
"..##%%%%##..==....##%%%%##............##%%%%##....==..##%%%%##..",
"..##%%%%##..==....##%%%%##............##%%%%##....==..##%%%%##..",
"..######..==##..  ..##==................==##..  ..##==..######..",
"..######..==##..  ..##==................==##..  ..##==..######..",
"  ....==####oo......####................####......oo####==....  ",
"  ....==####oo......####................####......oo####==....  ",
"  ..oo####oooo..&&..##%%....++++++++....%%##..&&..oooo####oo..  ",
"  ..oo####oooo..&&..##%%....++++++++....%%##..&&..oooo####oo..  ",
"..##oooooo######..&&..%%..++++++++++++..%%..&&..######oooooo##..",
"..##oooooo######..&&..%%..++++++++++++..%%..&&..######oooooo##..",
"..####%%%%%%%%%%..&&..%%==++@@@@@@@@++==%%..&&..%%%%%%%%%%####..",
"..####%%%%%%%%%%..&&..%%==++@@@@@@@@++==%%..&&..%%%%%%%%%%####..",
"  ..####%%%%%%##..&&..##%%@@==@@@@==@@%%##..&&..##%%%%%%####..  ",
"  ..####%%%%%%##..&&..##%%@@==@@@@==@@%%##..&&..##%%%%%%####..  ",
"  ..############..&&&&..##%%==++++==%%##..&&&&..############..  ",
"  ..############..&&&&..##%%==++++==%%##..&&&&..############..  ",
"    ..########..##..&&..##%%%%%%%%%%%%##..&&..##..########..    ",
"    ..########..##..&&..##%%%%%%%%%%%%##..&&..##..########..    ",
"      ....####..##&&......##........##......&&##..####....      ",
"      ....####..##&&......##........##......&&##..####....      ",
"          ....%%##&&&&&&&&..##....##..&&&&&&&&##%%....          ",
"          ....%%##&&&&&&&&..##....##..&&&&&&&&##%%....          ",
"            ..####&&******....&&&&....******&&####..            ",
"            ..####&&******....&&&&....******&&####..            ",
"            ....##&&&&&&&&..&&....&&..&&&&&&&&##....            ",
"            ....##&&&&&&&&..&&....&&..&&&&&&&&##....            ",
"            ..%%..&&**....&&........&&....**&&..%%..            ",
"            ..%%..&&**....&&........&&....**&&..%%..            ",
"      ......####%%....%%==..&&....&&..==%%....%%####......      ",
"      ......####%%....%%==..&&....&&..==%%....%%####......      ",
"    ..OOOO######..%%==##%%%%........%%%%##==%%..######OOOO..    ",
"    ..OOOO######..%%==##%%%%........%%%%##==%%..######OOOO..    ",
"    ..oooo######..##%%####%%........%%####%%##..######oooo..    ",
"    ..oooo######..##%%####%%........%%####%%##..######oooo..    ",
"    ..............==##%%%%%%%%....%%%%%%%%##==..............    ",
"    ..............==##%%%%%%%%....%%%%%%%%##==..............    ",
"    ....oooooooo..######%%%%##....##%%%%######..oooooooo....    ",
"    ....oooooooo..######%%%%##....##%%%%######..oooooooo....    ",
"    ....OOOOOOOO....**********....**********....OOOOOOOO....    ",
"    ....OOOOOOOO....**********....**********....OOOOOOOO....    ",
"    ....oooooooo..&&**########....########**&&..oooooooo....    ",
"    ....oooooooo..&&**########....########**&&..oooooooo....    ",
"      ............&&**..####..&&&&..####..**&&............      ",
"      ............&&**..####..&&&&..####..**&&............      ",
"      ............  &&&&&&&&&&&&&&&&&&&&&&&&  ............      ",
"      ............  &&&&&&&&&&&&&&&&&&&&&&&&  ............      ",
"        ........      ....................      ........        ",
"        ........      ....................      ........        ",
"                                                                ",
"                                                                "
};
