/* XPM */
static char *bowser11678218043[] = {
/* columns rows colors chars-per-pixel */
"64 64 13 1 ",
"  c None",
". c #002727",
"X c #006F00",
"o c #274848",
"O c #486767",
"+ c #8F0000",
"@ c #F80000",
"# c #B77800",
"$ c #00A700",
"% c #F8B700",
"& c #6F8F8F",
"* c #C8E8E8",
"= c #F8F8F8",
/* pixels */
"                        ..++@@@@@@@@++..                        ",
"                        ..++@@@@@@@@++..                        ",
"          ......      @@@@@@$$$$$$$$@@@@@@      ......          ",
"          ......      @@@@@@$$$$$$$$@@@@@@      ......          ",
"          ..%%==......XX==@@@@$$$$@@@@==XX......==%%..          ",
"          ..%%==......XX==@@@@$$$$@@@@==XX......==%%..          ",
"            ..%%====..$$====..XXXX..====$$..====%%..            ",
"            ..%%====..$$====..XXXX..====$$..====%%..            ",
"              ..%%%%..$$$$==%%%%%%%%==$$$$..%%%%..              ",
"              ..%%%%..$$$$==%%%%%%%%==$$$$..%%%%..              ",
"                ....##%%$$%%..%%%%..%%$$%%##....                ",
"                ....##%%$$%%..%%%%..%%$$%%##....                ",
"                ..##%%%%%%%%%%%%%%%%%%%%%%%%##..                ",
"                ..##%%%%%%%%%%%%%%%%%%%%%%%%##..                ",
"                ..##%%%%##==########==##%%%%##..                ",
"                ..##%%%%##==########==##%%%%##..                ",
"          ..      ..##==................==##..      ..          ",
"          ..      ..##==................==##..      ..          ",
"        ..==..  ....####................####....  ..==..        ",
"        ..==..  ....####................####....  ..==..        ",
"          ..XX..&&&&..%%................%%..&&&&..XX..          ",
"          ..XX..&&&&..%%................%%..&&&&..XX..          ",
"          ......&&&&..%%....++++++++....%%..&&&&......          ",
"          ......&&&&..%%....++++++++....%%..&&&&......          ",
"        ..%%%%....&&..%%==++@@@@@@@@++==%%..&&....%%%%..        ",
"        ..%%%%....&&..%%==++@@@@@@@@++==%%..&&....%%%%..        ",
"      ..%%%%%%%%..&&..##%%++==@@@@==++%%##..&&..%%%%%%%%..      ",
"      ..%%%%%%%%..&&..##%%++==@@@@==++%%##..&&..%%%%%%%%..      ",
"    ..##%%%%%%%%%%..&&..%%%%==++++==%%%%..&&..%%%%%%%%%%##..    ",
"    ..##%%%%%%%%%%..&&..%%%%==++++==%%%%..&&..%%%%%%%%%%##..    ",
"    ..##%%%%%%%%oooo....##%%%%%%%%%%%%##....oooo%%%%%%%%##..    ",
"    ..##%%%%%%%%oooo....##%%%%%%%%%%%%##....oooo%%%%%%%%##..    ",
"    ..######%%oooo%%%%%%..##........##..%%%%%%oooo%%######..    ",
"    ..######%%oooo%%%%%%..##........##..%%%%%%oooo%%######..    ",
"      ..####oooo##%%%%%%%%..##....##..%%%%%%%%##oooo####..      ",
"      ..####oooo##%%%%%%%%..##....##..%%%%%%%%##oooo####..      ",
"        ..##oooo##%%%%%%%%....&&&&....%%%%%%%%##oooo##..        ",
"        ..##oooo##%%%%%%%%....&&&&....%%%%%%%%##oooo##..        ",
"          ....oo##########..&&....&&..##########oo....          ",
"          ....oo##########..&&....&&..##########oo....          ",
"            ......####....&&........&&....####......            ",
"            ......####....&&........&&....####......            ",
"      ......####%%....%%==..&&....&&..==%%....%%####......      ",
"      ......####%%....%%==..&&....&&..==%%....%%####......      ",
"    ..OOOO######..%%==######........######==%%..######OOOO..    ",
"    ..OOOO######..%%==######........######==%%..######OOOO..    ",
"    ..oooo######..########%%........%%########..######oooo..    ",
"    ..oooo######..########%%........%%########..######oooo..    ",
"    ..............==##%%%%%%%%....%%%%%%%%##==..............    ",
"    ..............==##%%%%%%%%....%%%%%%%%##==..............    ",
"    ....oooooooo..######%%%%##....##%%%%######..oooooooo....    ",
"    ....oooooooo..######%%%%##....##%%%%######..oooooooo....    ",
"    ....OOOOOOOO....**********....**********....OOOOOOOO....    ",
"    ....OOOOOOOO....**********....**********....OOOOOOOO....    ",
"    ....oooooooo..&&**########....########**&&..oooooooo....    ",
"    ....oooooooo..&&**########....########**&&..oooooooo....    ",
"      ............&&**..####..&&&&..####..**&&............      ",
"      ............&&**..####..&&&&..####..**&&............      ",
"      ............  &&&&&&&&&&&&&&&&&&&&&&&&  ............      ",
"      ............  &&&&&&&&&&&&&&&&&&&&&&&&  ............      ",
"        ........      ....................      ........        ",
"        ........      ....................      ........        ",
"                                                                ",
"                                                                "
};
