/* XPM */
static char *_1f4525020774862eb767daea4abe7dd2Z7cKtKpxy6S671H[] = {
/* columns rows colors chars-per-pixel */
"64 64 6 1 ",
"  c black",
". c #282828",
"X c #F88000",
"o c #F8C810",
"O c #F8E078",
"+ c #D0BAD9",
/* pixels */
"      +          ++++            ++++            ++++           ",
"           +     ++++      +     ++++      +     ++++      +    ",
"          +++     ++      +++     ++      +++     ++      +++   ",
"          +++             +++             +++             +++   ",
"           +               +               +               +    ",
"  ++                  +               +               +         ",
" ++++                +++             +++             +++        ",
" ++++     ++         +++  ++         +++  ++         +++  ++    ",
" ++++    ++++         +  ++++         +  ++++         +  ++++   ",
" ++++    ++++            ++++            ++++            ++++   ",
"  ++     ++++            ++++            ++++            ++++   ",
"         ++++            ++++            ++++            ++++   ",
"          ++              ++              ++              ++    ",
"      +           ++              ++              ++            ",
"     +++         ++++            ++++            ++++           ",
"     +++         ++++            ++++            ++++           ",
"      +          ++++            ++++            ++++           ",
"           +     ++++      +     ++++      +     ++++      +    ",
"          +++     ++      +++     ++      +++     ++      +++   ",
"          +++             +++             +++             +++   ",
"           +               +               +               +    ",
"  ++                  +               +               +         ",
" ++++                +++       ..    +++             +++        ",
" ++++     ++         +++  ++  .OO.   +++  ++         +++  ++    ",
" ++++    ++++         +  ++++ .OO.    +  ++++         +  ++++   ",
" ++++    ++++            ++++.OOOO.      ++++            ++++   ",
"  ++     ++++           ......OOOO...... ++++            ++++   ",
"         ++++           .OOOOOOOOOOOOOO. ++++            ++++   ",
"          ++             .XoOO.OO.OOoX.   ++              ++    ",
"      +           ++      .XoO.OO.OoX.            ++            ",
"     +++         ++++      .Xo.OO.oX.            ++++           ",
"     +++         ++++      .XoOOOOoX.            ++++           ",
"      +          ++++     .XooooooooX.           ++++           ",
"           +     ++++     .XoooXXoooX.     +     ++++      +    ",
"          +++     ++     .XooXX..XXooX.   +++     ++      +++   ",
"          +++            .XXX..  ..XXX.   +++             +++   ",
"           +            .XX..      ..XX.   +               +    ",
"  ++                  + ...          ...              +         ",
" ++++                +++             +++             +++        ",
" ++++     ++         +++  ++         +++  ++         +++  ++    ",
" ++++    ++++         +  ++++         +  ++++         +  ++++   ",
" ++++    ++++            ++++            ++++            ++++   ",
"  ++     ++++            ++++            ++++            ++++   ",
"         ++++            ++++            ++++            ++++   ",
"          ++              ++              ++              ++    ",
"      +           ++              ++              ++            ",
"     +++         ++++            ++++            ++++           ",
"     +++         ++++            ++++            ++++           ",
"      +          ++++            ++++            ++++           ",
"           +     ++++      +     ++++      +     ++++      +    ",
"          +++     ++      +++     ++      +++     ++      +++   ",
"          +++             +++             +++             +++   ",
"           +               +               +               +    ",
"  ++                  +               +               +         ",
" ++++                +++             +++             +++        ",
" ++++     ++         +++  ++         +++  ++         +++  ++    ",
" ++++    ++++         +  ++++         +  ++++         +  ++++   ",
" ++++    ++++            ++++            ++++            ++++   ",
"  ++     ++++            ++++            ++++            ++++   ",
"         ++++            ++++            ++++            ++++   ",
"          ++              ++              ++              ++    ",
"      +           ++              ++              ++            ",
"     +++         ++++            ++++            ++++           ",
"     +++         ++++            ++++            ++++           "
};
