/* XPM */
static char *_26ff9654b154b419567668f7780587aLIx0NwTKBLZYv0oe[] = {
/* columns rows colors chars-per-pixel */
"66 74 12 1 ",
"  c None",
". c #003535",
"X c #8B0000",
"o c #BD0000",
"O c #B68B6B",
"+ c #D5A264",
"@ c #0000E6",
"# c #8A2284",
"$ c #CA5DC3",
"% c #0092F9",
"& c #D2EDED",
"* c #F9F9F9",
/* pixels */
"                                                                  ",
"                                                                  ",
"                                                                  ",
"                                                                  ",
"                            ............                          ",
"                            ............                          ",
"                        ....$$##****##$$....                      ",
"                        ....$$##****##$$....                      ",
"                      ..$$$$##********##$$$$..                    ",
"                      ..$$$$##********##$$$$..                    ",
"                    ..$$####............####$$..                  ",
"                    ..$$####............####$$..                  ",
"                    ..####..$$$$$$$$$$$$..####..                  ",
"                    ..####..$$$$$$$$$$$$..####..                  ",
"                    ..##..$$............$$..##..                  ",
"                    ..##..$$............$$..##..                  ",
"                  ..........****++++****..........                ",
"                  ..........****++++****..........                ",
"                ..OO++....++**..++++..**++....++OO..              ",
"                ..OO++....++**..++++..**++....++OO..              ",
"              ....OO++..++++**..++++..**++++..++OO....            ",
"              ....OO++..++++**..++++..**++++..++OO....            ",
"      ....  ..**&&..OO++++++..++++++++..++++++OO..&&**..  ..      ",
"      ....  ..**&&..OO++++++..++++++++..++++++OO..&&**..  ..      ",
"    ..**&&....**&&....OO++....OOOOOOOO....++OO....&&**....&&      ",
"    ..**&&....**&&....OO++....OOOOOOOO....++OO....&&**....&&      ",
"      ..**&&........  ..++++............++++..  ........&&**      ",
"      ..**&&........  ..++++............++++..  ........&&**      ",
"        ....****&&..  ..OO++..XXXXXXXX..++OO..  ..&&****....      ",
"        ....****&&..  ..OO++..XXXXXXXX..++OO..  ..&&****....      ",
"        ..&&..&&&&..    ..++XXXXooooXXXX++..    ..&&&&..&&..      ",
"        ..&&..&&&&..    ..++XXXXooooXXXX++..    ..&&&&..&&..      ",
"        ..&&&&..&&........OO++XXooooXX++OO........&&..&&&&..      ",
"        ..&&&&..&&........OO++XXooooXX++OO........&&..&&&&..      ",
"          ..........##@@@@OO++........++OO@@@@##..........        ",
"          ..........##@@@@OO++........++OO@@@@##..........        ",
"            ..######$$@@%%..OOOOOOOOOOOO..%%@@$$######..          ",
"            ..######$$@@%%..OOOOOOOOOOOO..%%@@$$######..          ",
"            ..$$$$$$##@@%%%%............%%%%@@##$$$$$$..          ",
"            ..$$$$$$##@@%%%%............%%%%@@##$$$$$$..          ",
"            ..##$$####@@****@@$$$$$$$$@@****@@####$$##..          ",
"            ..##$$####@@****@@$$$$$$$$@@****@@####$$##..          ",
"              ....####@@&&&&@@##$$$$##@@&&&&@@####....            ",
"              ....####@@&&&&@@##$$$$##@@&&&&@@####....            ",
"                  ....@@@@@@@@########@@@@@@@@....                ",
"                  ....@@@@@@@@########@@@@@@@@....                ",
"                  ......@@@@%%%%%%%%%%%%@@@@......                ",
"                  ......@@@@%%%%%%%%%%%%@@@@......                ",
"                ..%%%%%%..%%%%%%%%%%%%%%%%..%%%%%%..              ",
"                ..%%%%%%..%%%%%%%%%%%%%%%%..%%%%%%..              ",
"            ....%%%%%%%%%%%%%%%%%%%%%%%%%%%%%%%%%%%%....          ",
"            ....%%%%%%%%%%%%%%%%%%%%%%%%%%%%%%%%%%%%....          ",
"          ..oooo..%%%%%%@@%%%%%%%%%%%%%%%%@@%%%%%%..oooo..        ",
"          ..oooo..%%%%%%@@%%%%%%%%%%%%%%%%@@%%%%%%..oooo..        ",
"        ..ooXXXXoo..%%@@@@@@@@@@@@@@@@@@@@@@@@%%..ooXXXXoo..      ",
"        ..ooXXXXoo..%%@@@@@@@@@@@@@@@@@@@@@@@@%%..ooXXXXoo..      ",
"        ..XXXXXXXXoo..@@@@@@............@@@@@@..ooXXXXXXXX..      ",
"        ..XXXXXXXXoo..@@@@@@............@@@@@@..ooXXXXXXXX..      ",
"        ..XXXXXXXXoo..@@....            ....@@..ooXXXXXXXX..      ",
"        ..XXXXXXXXoo..@@....            ....@@..ooXXXXXXXX..      ",
"          ..XXXXXXoo....                    ....ooXXXXXX..        ",
"          ..XXXXXXoo....                    ....ooXXXXXX..        ",
"          ..XXXXXXXX..                        ..XXXXXXXX..        ",
"          ..XXXXXXXX..                        ..XXXXXXXX..        ",
"            ........                            ........          ",
"            ........                            ........          ",
"                                                                  ",
"                                                                  ",
"                                                                  ",
"                                                                  ",
"                                                                  ",
"                                                                  ",
"                                                                  ",
"                                                                  "
};
