/* XPM */
static char *luigi_race41678218045[] = {
/* columns rows colors chars-per-pixel */
"64 64 12 1 ",
"  c None",
". c #002727",
"X c #274848",
"o c #486767",
"O c gray47",
"+ c #B07451",
"@ c #D5A264",
"# c #0000DF",
"$ c #8A2284",
"% c #CA5DC3",
"& c #C8E8E8",
"* c #F8F8F8",
/* pixels */
"                              ..........                        ",
"                              ..........                        ",
"                          ....%%%%%%%%%%..                      ",
"                          ....%%%%%%%%%%..                      ",
"                        ..%%%%%%%%%%%%%%**..                    ",
"                        ..%%%%%%%%%%%%%%**..                    ",
"                    ....%%%%%%%%$$$$$$$$&&..                    ",
"                    ....%%%%%%%%$$$$$$$$&&..                    ",
"                  ..%%%%%%$$$$$$$$$$......$$..                  ",
"                  ..%%%%%%$$$$$$$$$$......$$..                  ",
"                ..$$%%%%$$$$........$$$$%%%%%%..                ",
"                ..$$%%%%$$$$........$$$$%%%%%%..                ",
"                ..$$%%$$......$$$$$$..........                  ",
"                ..$$%%$$......$$$$$$..........                  ",
"                ..$$$$..++@@........&&&&++..                    ",
"                ..$$$$..++@@........&&&&++..                    ",
"                ..$$....++@@....++++..**++..                    ",
"                ..$$....++@@....++++..**++..                    ",
"                  ......++@@@@..@@@@..**++....                  ",
"                  ......++@@@@..@@@@..**++....                  ",
"                    ....++@@@@@@@@@@++++@@@@@@..                ",
"                    ....++@@@@@@@@@@++++@@@@@@..                ",
"                      ....++++@@@@++....++++++..                ",
"                      ....++++@@@@++....++++++..                ",
"                      ......++++@@@@@@........                  ",
"                      ......++++@@@@@@........                  ",
"                    ....OOOOOOOOOO++@@@@....                    ",
"                    ....OOOOOOOOOO++@@@@....                    ",
"                ....####%%%%%%%%%%OO....%%..                    ",
"                ....####%%%%%%%%%%OO....%%..                    ",
"              ..%%%%####%%%%%%%%%%%%####%%%%..                  ",
"              ..%%%%####%%%%%%%%%%%%####%%%%..                  ",
"              ..%%%%####%%%%%%%%%%%%####%%%%..                  ",
"              ..%%%%####%%%%%%%%%%%%####%%%%..                  ",
"            ..%%%%%%####$$$$$$$$$$$$####%%%%%%..                ",
"            ..%%%%%%####$$$$$$$$$$$$####%%%%%%..                ",
"            ..%%%%%%####............####%%%%%%..                ",
"            ..%%%%%%####............####%%%%%%..                ",
"            ..%%%%%%##..@@@@@@@@@@@@..##%%%%%%..                ",
"            ..%%%%%%##..@@@@@@@@@@@@..##%%%%%%..                ",
"              ..$$....@@@@++++++++@@@@....$$..                  ",
"              ..$$....@@@@++++++++@@@@....$$..                  ",
"          ......##..@@@@++++++++++++@@@@..##......              ",
"          ......##..@@@@++++++++++++@@@@..##......              ",
"        ..oooo####XXXXXXXXXXXXXXXXXXXXXXXX####oooo..            ",
"        ..oooo####XXXXXXXXXXXXXXXXXXXXXXXX####oooo..            ",
"    ..........##............................##..........        ",
"    ..........##............................##..........        ",
"  ..oooooooooo......&&&&&&&&&&&&&&&&&&&&......oooooooooo..      ",
"  ..oooooooooo......&&&&&&&&&&&&&&&&&&&&......oooooooooo..      ",
"  ..XXXXXXXXXX..OO&&..OOOOOOOOOOOOOOOO..&&OO..XXXXXXXXXX..      ",
"  ..XXXXXXXXXX..OO&&..OOOOOOOOOOOOOOOO..&&OO..XXXXXXXXXX..      ",
"  ..............&&&&..&&&&&&&&&&&&&&&&..&&&&..............      ",
"  ..............&&&&..&&&&&&&&&&&&&&&&..&&&&..............      ",
"  ..............  &&..OOOOOOOOOOOOOOOO..&&  ..............      ",
"  ..............  &&..OOOOOOOOOOOOOOOO..&&  ..............      ",
"  ..............%%&&..  OOOOOOOOOOOO  ..&&%%..............      ",
"  ..............%%&&..  OOOOOOOOOOOO  ..&&%%..............      ",
"  ..............$$$$$$&&&&&&&&&&&&&&&&$$$$$$..............      ",
"  ..............$$$$$$&&&&&&&&&&&&&&&&$$$$$$..............      ",
"    ..........  ............................  ..........        ",
"    ..........  ............................  ..........        ",
"                                                                ",
"                                                                "
};
