/* XPM */
static char *_b98fcd54e7d425eb1914cb10300cf1fVYHI5rXzhqTzgr2E[] = {
/* columns rows colors chars-per-pixel */
"64 64 11 1 ",
"  c None",
". c #002727",
"X c #694B37",
"o c #274848",
"O c #486767",
"+ c gray47",
"@ c #A67C64",
"# c #0000DF",
"$ c #8A2284",
"% c #EB64BB",
"& c #C8E8E8",
/* pixels */
"                                ........                        ",
"                                ........                        ",
"                            ....%%%%%%%%....                    ",
"                            ....%%%%%%%%....                    ",
"                        ....%%%%%%%%%%%%%%%%..                  ",
"                        ....%%%%%%%%%%%%%%%%..                  ",
"                      ..%%%%%%%%%%%%%%%%%%%%%%..                ",
"                      ..%%%%%%%%%%%%%%%%%%%%%%..                ",
"                    ..$$$$%%%%%%%%%%%%%%%%%%%%%%..              ",
"                    ..$$$$%%%%%%%%%%%%%%%%%%%%%%..              ",
"                    ..$$$$$$$$%%%%%%%%%%%%%%%%%%%%..            ",
"                    ..$$$$$$$$%%%%%%%%%%%%%%%%%%%%..            ",
"                  ..@@..$$$$$$$$$$$$%%%%%%%%$$$$$$..            ",
"                  ..@@..$$$$$$$$$$$$%%%%%%%%$$$$$$..            ",
"                  ..@@@@..$$$$$$$$$$$$$$$$$$$$$$$$..            ",
"                  ..@@@@..$$$$$$$$$$$$$$$$$$$$$$$$..            ",
"                  ..XX@@......$$$$$$$$$$$$$$$$$$..@@..          ",
"                  ..XX@@......$$$$$$$$$$$$$$$$$$..@@..          ",
"                  ..XX@@XX..........$$$$$$......@@@@..          ",
"                  ..XX@@XX..........$$$$$$......@@@@..          ",
"                    ..XX..XX....................@@XX..          ",
"                    ..XX..XX....................@@XX..          ",
"                      ....XX@@................XX@@XX..          ",
"                      ....XX@@................XX@@XX..          ",
"                        ..XXXX@@@@@@......@@XX..XX..            ",
"                        ..XXXX@@@@@@......@@XX..XX..            ",
"                    ......XX++++++@@@@@@@@XXXX....              ",
"                    ......XX++++++@@@@@@@@XXXX....              ",
"                  ..%%%%####%%%%%%++++++XXXX..                  ",
"                  ..%%%%####%%%%%%++++++XXXX..                  ",
"                ..%%%%%%####%%%%%%%%%%%%####....                ",
"                ..%%%%%%####%%%%%%%%%%%%####....                ",
"                ..%%%%%%####%%%%%%%%%%%%####%%..                ",
"                ..%%%%%%####%%%%%%%%%%%%####%%..                ",
"                ..%%%%%%####$$$$$$$$$$####%%%%%%..              ",
"                ..%%%%%%####$$$$$$$$$$####%%%%%%..              ",
"                $$%%%%####............####%%%%%%$$..            ",
"                $$%%%%####............####%%%%%%$$..            ",
"                ..$$$$##..@@@@@@@@@@@@....$$%%%%$$..            ",
"                ..$$$$##..@@@@@@@@@@@@....$$%%%%$$..            ",
"                  ......@@@@XXXXXXXX@@@@....$$$$..              ",
"                  ......@@@@XXXXXXXX@@@@....$$$$..              ",
"            ......##..@@@@XXXXXXXXXXXX@@@@..........            ",
"            ......##..@@@@XXXXXXXXXXXX@@@@..........            ",
"          ..OOOO####oooooooooooooooooooooooo####OOOO..          ",
"          ..OOOO####oooooooooooooooooooooooo####OOOO..          ",
"      ........oo##............................##..........      ",
"      ........oo##............................##..........      ",
"    ..OOOOOOOOOO......&&&&&&&&&&&&&&&&&&&&......OOOOOOOOOO..    ",
"    ..OOOOOOOOOO......&&&&&&&&&&&&&&&&&&&&......OOOOOOOOOO..    ",
"    ..oooooooooo..++&&..++++++++++++++++..&&++..oooooooooo..    ",
"    ..oooooooooo..++&&..++++++++++++++++..&&++..oooooooooo..    ",
"    ..............&&&&..&&&&&&&&&&&&&&&&..&&&&..............    ",
"    ..............&&&&..&&&&&&&&&&&&&&&&..&&&&..............    ",
"    ..............  &&..++++++++++++++++..&&  ..............    ",
"    ..............  &&..++++++++++++++++..&&  ..............    ",
"    ..............%%&&..  ++++++++++++  ..&&%%..............    ",
"    ..............%%&&..  ++++++++++++  ..&&%%..............    ",
"    ..............$$$$$$&&&&&&&&&&&&&&&&$$$$$$..............    ",
"    ..............$$$$$$&&&&&&&&&&&&&&&&$$$$$$..............    ",
"                                                                ",
"                                                                ",
"                                                                ",
"                                                                "
};
