/* XPM */
static char *d37057d35b5542a5ce50c25e841ae031Of4cZRTkvaFS0TnC[] = {
/* columns rows colors chars-per-pixel */
"64 66 13 1 ",
"  c None",
". c #002727",
"X c #694B37",
"o c #274848",
"O c #486767",
"+ c gray47",
"@ c #A67C64",
"# c #0000DF",
"$ c #007FF8",
"% c #8A2284",
"& c #EB64BB",
"* c #C8E8E8",
"= c #F8F8F8",
/* pixels */
"                                                                ",
"                                                                ",
"                        ..........                              ",
"                        ..........                              ",
"                    ....&&&&&&&&&&....                          ",
"                    ....&&&&&&&&&&....                          ",
"                  ..%%&&&&&&&&&&&&&&&&..                        ",
"                  ..%%&&&&&&&&&&&&&&&&..                        ",
"                  ..%%&&&&&&&&&&&&&&&&&&....                    ",
"                  ..%%&&&&&&&&&&&&&&&&&&....                    ",
"                ..%%%%%%&&&&&&&&&&&&&&&&&&%%..                  ",
"                ..%%%%%%&&&&&&&&&&&&&&&&&&%%..                  ",
"                ....%%%%%%%%&&&&&&&&&&&&%%%%..                  ",
"                ....%%%%%%%%&&&&&&&&&&&&%%%%..                  ",
"              ..%%%%....%%%%%%%%%%%%%%%%%%%%..                  ",
"              ..%%%%....%%%%%%%%%%%%%%%%%%%%..                  ",
"                ....@@@@..%%%%%%%%%%%%%%%%..                    ",
"                ....@@@@..%%%%%%%%%%%%%%%%..                    ",
"                  ..@@@@........%%%%%%%%..XX..                  ",
"                  ..@@@@........%%%%%%%%..XX..                  ",
"                  ..XX@@XX................XX..                  ",
"                  ..XX@@XX................XX..                  ",
"                  ..XX@@XX..............XX..                    ",
"                  ..XX@@XX..............XX..                    ",
"                    ..XX..@@@@........XX..                      ",
"                    ..XX..@@@@........XX..                      ",
"                    ....@@@@@@@@@@@@@@XX..                      ",
"                    ....@@@@@@@@@@@@@@XX..                      ",
"                    ..XXXXXXXX++++++++++......                  ",
"                    ..XXXXXXXX++++++++++......                  ",
"                      ........&&&&&&&&&&$$$$&&..                ",
"                      ........&&&&&&&&&&$$$$&&..                ",
"                      ..&&$$$$$$&&&&&&&&####&&&&..              ",
"                      ..&&$$$$$$&&&&&&&&####&&&&..              ",
"                  ..%%&&&&######&&&&&&&&&&####&&..              ",
"                  ..%%&&&&######&&&&&&&&&&####&&..              ",
"              ....%%&&&&&&######&&&&&&%%%%####%%&&..            ",
"              ....%%&&&&&&######&&&&&&%%%%####%%&&..            ",
"            ..%%%%&&&&&&&&######&&%%%%%%%%......%%..            ",
"            ..%%%%&&&&&&&&######&&%%%%%%%%......%%..            ",
"            ..&&&&&&&&%%%%%%######%%%%....@@@@@@....            ",
"            ..&&&&&&&&%%%%%%######%%%%....@@@@@@....            ",
"            ..&&&&&&%%%%..%%######%%..@@@@XXXXXX@@..            ",
"            ..&&&&&&%%%%..%%######%%..@@@@XXXXXX@@..            ",
"            ....%%%%....%%%%######..@@XXXXoooooooo@@..          ",
"            ....%%%%....%%%%######..@@XXXXoooooooo@@..          ",
"      ........  ....%%%%%%######..oooooooo................      ",
"      ........  ....%%%%%%######..oooooooo................      ",
"    ..ooOOOO..    ############............********..OOOOOO..    ",
"    ..ooOOOO..    ############............********..OOOOOO..    ",
"    ..oo++oo..######..........oo..********++++++..**oooooo..    ",
"    ..oo++oo..######..........oo..********++++++..**oooooo..    ",
"    ..**++....####..ooOOOOOOOO..**..++++++******..**........    ",
"    ..**++....####..ooOOOOOOOO..**..++++++******..**........    ",
"    ..++oo..%%....oo++oooooooo..**..******++++++..**........    ",
"    ..++oo..%%....oo++oooooooo..**..******++++++..**........    ",
"    ..oo....==%%..oooo..........**..++++++++++  ..**........    ",
"    ..oo....==%%..oooo..........**..++++++++++  ..**........    ",
"      ........==..oo**..........**..  ++++******%%%%......      ",
"      ........==..oo**..........**..  ++++******%%%%......      ",
"              ....oo++..........%%********........              ",
"              ....oo++..........%%********........              ",
"                  ..............  ........                      ",
"                  ..............  ........                      ",
"                    ..........                                  ",
"                    ..........                                  "
};
