/* XPM */
static char *_6e1c6fc98814448b4c6c2a12244c281NCiAam4iHODZri7o[] = {
/* columns rows colors chars-per-pixel */
"64 80 13 1 ",
"  c None",
". c black",
"X c #002B00",
"o c #B00000",
"O c #B07400",
"+ c #B07451",
"@ c #FF5151",
"# c #CB9200",
"$ c #37ACBB",
"% c #CBB092",
"& c #FFB092",
"* c #CBFFFF",
"= c white",
/* pixels */
"                                                                ",
"                                                                ",
"                                                                ",
"                                                                ",
"                              XXXX                              ",
"                              XXXX                              ",
"                          XXXX====XXXX                          ",
"                          XXXX====XXXX                          ",
"                      XXXX==&&XXXX&&==XXXX                      ",
"                      XXXX==&&XXXX&&==XXXX                      ",
"                    XXOOOO############OOOOXX                    ",
"                    XXOOOO############OOOOXX                    ",
"                XXXXOO####OOOO####OOOO####OOXXXX                ",
"                XXXXOO####OOOO####OOOO####OOXXXX                ",
"              XXOO######OOXXXXOOOOXXXXOO######OOXX              ",
"              XXOO######OOXXXXOOOOXXXXOO######OOXX              ",
"                XXOO##OOXX&&&&XXXX&&&&XXOO##OOXX                ",
"                XXOO##OOXX&&&&XXXX&&&&XXOO##OOXX                ",
"                XXOOOOXX&&XX&&&&&&&&XX&&XXOOOOXX                ",
"                XXOOOOXX&&XX&&&&&&&&XX&&XXOOOOXX                ",
"                  XXXX%%XX==XX&&&&XX==XX%%XXXX                  ",
"                  XXXX%%XX==XX&&&&XX==XX%%XXXX                  ",
"                  XX==%%&&$$XX&&&&XX$$&&%%==XX                  ",
"                  XX==%%&&$$XX&&&&XX$$&&%%==XX                  ",
"                  XXXX++&&XXXX&&&&XXXX&&++XXXX                  ",
"                  XXXX++&&XXXX&&&&XXXX&&++XXXX                  ",
"                XX====XX%%&&&&&&&&&&&&%%XX====XX                ",
"                XX====XX%%&&&&&&&&&&&&%%XX====XX                ",
"                XX====XXXX%%@@@@@@@@%%XXXX====XX                ",
"                XX====XXXX%%@@@@@@@@%%XXXX====XX                ",
"                XX****XXXX++%%oooo%%++XXXX****XX..              ",
"                XX****XXXX++%%oooo%%++XXXX****XX..              ",
"              XX****XXXXOOXX++%%%%++XXOOXXXX****XX              ",
"              XX****XXXXOOXX++%%%%++XXOOXXXX****XX              ",
"            XX**==****XX@@@@XXXXXXXX@@@@XX****==**XX            ",
"            XX**==****XX@@@@XXXXXXXX@@@@XX****==**XX            ",
"            XXXX**XXXX@@oooo@@@@@@@@oooo@@XXXX**XXXX            ",
"            XXXX**XXXX@@oooo@@@@@@@@oooo@@XXXX**XXXX            ",
"            XX&&XX%%XXoooo@@oooooooo@@ooooXX%%XX&&XX            ",
"            XX&&XX%%XXoooo@@oooooooo@@ooooXX%%XX&&XX            ",
"            XX&&%%%%XXoo@@&&&&&&&&&&&&@@ooXX%%%%&&XX            ",
"            XX&&%%%%XXoo@@&&&&&&&&&&&&@@ooXX%%%%&&XX            ",
"              XXXXXX  XXoo@@@@@@@@@@@@ooXX  XXXXXX              ",
"              XXXXXX  XXoo@@@@@@@@@@@@ooXX  XXXXXX              ",
"                      XX@@oooooooooooo@@XX                      ",
"                      XX@@oooooooooooo@@XX                      ",
"                        oo@@@@&&&&@@@@oo                        ",
"                        oo@@@@&&&&@@@@oo                        ",
"                    XXoo@@oooooooooooo@@ooXX                    ",
"                    XXoo@@oooooooooooo@@ooXX                    ",
"                  XX@@@@&&@@&&@@@@&&@@&&@@@@XX                  ",
"                  XX@@@@&&@@&&@@@@&&@@&&@@@@XX                  ",
"                  XX@@@@&&@@&&@@@@&&@@&&@@@@XX                  ",
"                  XX@@@@&&@@&&@@@@&&@@&&@@@@XX                  ",
"                XX@@@@&&@@@@&&@@@@&&@@@@&&@@@@XX                ",
"                XX@@@@&&@@@@&&@@@@&&@@@@&&@@@@XX                ",
"                XX@@@@&&@@@@&&@@@@&&@@@@&&@@@@XX                ",
"                XX@@@@&&@@@@&&@@@@&&@@@@&&@@@@XX                ",
"              XXoooo@@oooo@@&&@@@@&&@@oooo@@ooooXX              ",
"              XXoooo@@oooo@@&&@@@@&&@@oooo@@ooooXX              ",
"              XXoooo@@oooo@@oooooooo@@oooo@@ooooXX              ",
"              XXoooo@@oooo@@oooooooo@@oooo@@ooooXX              ",
"            XXoooo@@oooooo@@oooooooo@@oooooo@@ooooXX            ",
"            XXoooo@@oooooo@@oooooooo@@oooooo@@ooooXX            ",
"            XXoooo@@oooooo@@oooooooo@@oooooo@@ooooXX            ",
"            XXoooo@@oooooo@@oooooooo@@oooooo@@ooooXX            ",
"            XXoooo@@oooooo@@oooooooo@@oooooo@@ooooXX            ",
"            XXoooo@@oooooo@@oooooooo@@oooooo@@ooooXX            ",
"          XXXXoooo@@oooooo@@oooooooo@@oooooo@@ooooXXXX          ",
"          XXXXoooo@@oooooo@@oooooooo@@oooooo@@ooooXXXX          ",
"        XXXXXXXXoo@@oooooo@@oooooooo@@oooooo@@ooXXXXXXXX        ",
"        XXXXXXXXoo@@oooooo@@oooooooo@@oooooo@@ooXXXXXXXX        ",
"            XXXXXXXXXXooXX@@oooooooo@@XXooXXXXXXXXXX            ",
"            XXXXXXXXXXooXX@@oooooooo@@XXooXXXXXXXXXX            ",
"                  XXXXXXXXXXXXXXXXXXXXXXXXXXXX                  ",
"                  XXXXXXXXXXXXXXXXXXXXXXXXXXXX                  ",
"                                                                ",
"                                                                ",
"                                                                ",
"                                                                "
};
