/* XPM */
static char *peach_race21678218049[] = {
/* columns rows colors chars-per-pixel */
"64 64 14 1 ",
"  c None",
". c #002828",
"X c #780000",
"o c #284848",
"O c #486868",
"+ c #B00000",
"@ c #B87800",
"# c #F85858",
"$ c #D89820",
"% c #D0A088",
"& c #E8B8A0",
"* c #F8B0B0",
"= c #C8E8E8",
"- c #F8F8F8",
/* pixels */
"                                    ........                    ",
"                                    ........                    ",
"                                ......------..                  ",
"                                ......------..                  ",
"                            ....@@@@****--......                ",
"                            ....@@@@****--......                ",
"                          ..@@@@@@@@@@....@@@@@@..              ",
"                          ..@@@@@@@@@@....@@@@@@..              ",
"                        ..@@$$$$$$$$$$$$$$$$$$$$..              ",
"                        ..@@$$$$$$$$$$$$$$$$$$$$..              ",
"                      ....@@$$$$$$$$$$$$$$@@@@$$@@..            ",
"                      ....@@$$$$$$$$$$$$$$@@@@$$@@..            ",
"                    ..@@$$$$$$$$$$$$$$$$@@@@..@@@@..            ",
"                    ..@@$$$$$$$$$$$$$$$$@@@@..@@@@..            ",
"                      ..@@$$$$$$$$$$@@@@....%%....              ",
"                      ..@@$$$$$$$$$$@@@@....%%....              ",
"                        ..@@$$$$$$@@....&&&&..%%..              ",
"                        ..@@$$$$$$@@....&&&&..%%..              ",
"                        ..@@$$$$$$@@&&@@....--%%..              ",
"                        ..@@$$$$$$@@&&@@....--%%..              ",
"                        ..@@$$$$@@----..&&..--%%..              ",
"                        ..@@$$$$@@----..&&..--%%..              ",
"                        ..@@$$$$@@####..&&....%%%%oo            ",
"                        ..@@$$$$@@####..&&....%%%%oo            ",
"                        ..@@$$$$@@@@@@@@..&&&&%%..              ",
"                        ..@@$$$$@@@@@@@@..&&&&%%..              ",
"                  ......@@@@$$$$$$$$@@@@..&&&&##..              ",
"                  ......@@@@$$$$$$$$@@@@..&&&&##..              ",
"                ..**..@@@@$$$$$$@@$$$$@@@@......**..            ",
"                ..**..@@@@$$$$$$@@$$$$@@@@......**..            ",
"                ..**..@@@@$$$$$$@@$$$$@@@@@@@@..**..            ",
"                ..**..@@@@$$$$$$@@$$$$@@@@@@@@..**..            ",
"                ..****..@@@@@@@@$$$$@@@@@@@@..****..            ",
"                ..****..@@@@@@@@$$$$@@@@@@@@..****..            ",
"                ..****..@@@@@@@@@@@@@@@@@@@@..****..            ",
"                ..****..@@@@@@@@@@@@@@@@@@@@..****..            ",
"                ..####....@@..@@@@@@@@..@@..****..              ",
"                ..####....@@..@@@@@@@@..@@..****..              ",
"                  ......@@..............@@....##..              ",
"                  ......@@..............@@....##..              ",
"                    ..&&..++++++++++++..@@..&&..                ",
"                    ..&&..++++++++++++..@@..&&..                ",
"                  ......++++XXXXXXXX++++......                  ",
"                  ......++++XXXXXXXX++++......                  ",
"            ......**..++++XXXXXXXXXXXX++++..**......            ",
"            ......**..++++XXXXXXXXXXXX++++..**......            ",
"          ..OOOO**##oooooooooooooooooooooooo##**OOOO..          ",
"          ..OOOO**##oooooooooooooooooooooooo##**OOOO..          ",
"      ..........##............................##..........      ",
"      ..........##............................##..........      ",
"    ..OOOOOOOOOO......====================......OOOOOOOOOO..    ",
"    ..OOOOOOOOOO......====================......OOOOOOOOOO..    ",
"    ..oooooooooo..  ==..XXXXXXXXXXXXXXXX..==  ..oooooooooo..    ",
"    ..oooooooooo..  ==..XXXXXXXXXXXXXXXX..==  ..oooooooooo..    ",
"    ..............====..================..====..............    ",
"    ..............====..================..====..............    ",
"    ..............  ==..XXXXXXXXXXXXXXXX..==  ..............    ",
"    ..............  ==..XXXXXXXXXXXXXXXX..==  ..............    ",
"    ..............--==..  XXXXXXXXXXXX  ..==--..............    ",
"    ..............--==..  XXXXXXXXXXXX  ..==--..............    ",
"    ..............------================------..............    ",
"    ..............------================------..............    ",
"      ..........  ............................  ..........      ",
"      ..........  ............................  ..........      "
};
