/* XPM */
static char *c07101b66b0349a4ff747e0334cf9332gNqq2G8uEgLZ8u1s[] = {
/* columns rows colors chars-per-pixel */
"12 14 37 1 ",
"  c None",
". c gray30",
"X c #746862",
"o c #BC3C33",
"O c #B87800",
"+ c #BA7A02",
"@ c #BD7D05",
"# c #BE7E06",
"$ c #F85858",
"% c #C08008",
"& c #C7870F",
"* c #D09018",
"= c #D89820",
"- c #D0932D",
"; c #C38A3F",
": c #D69A3A",
"> c #C79155",
", c #CA9666",
"< c #CC9868",
"1 c #D29E6E",
"2 c #D6927E",
"3 c #D6A064",
"4 c #5BA9B9",
"5 c #34ACCA",
"6 c #D0A088",
"7 c #D6A68E",
"8 c #DFAF97",
"9 c #D9B29E",
"0 c #E2B29A",
"q c #DAB6A4",
"w c #E8B8A0",
"e c #F7B0B0",
"r c #F8B0B0",
"t c #F8B7B7",
"y c #F8CFCF",
"u c gray97",
"i c #F8F8F8",
/* pixels */
"            ",
"            ",
"   uetyrr   ",
"  OOO===OO  ",
"  *=O%=OO=% ",
"  *OOOOOO%% ",
"  #:q97qq-O ",
"   6iXw.i<  ",
"   6i465i,  ",
"  1wwwwww0: ",
"  1ww$$$w0: ",
"  #>82o83;& ",
"            ",
"            "
};
