/* XPM */
static char *b712058008314232b48fe87c56d314f8Eq5JMWjIOu55fQ61[] = {
/* columns rows colors chars-per-pixel */
"64 64 15 1 ",
"  c black",
". c #011278",
"X c #583070",
"o c #A01300",
"O c #F82400",
"+ c #C04800",
"@ c #F87800",
"# c #00A800",
"$ c #00F800",
"% c #009858",
"& c #B8B800",
"* c #F8F800",
"= c #3058F8",
"- c #B878F8",
"; c #01E0A8",
/* pixels */
"                                                                ",
"%%%%%%% %%%%%%% %%%%%%% %%%%%%% %%%%%%% %%%%%%% %%%%%%% %%%%%%% ",
";;;;;;% ;;;;;;% ;;;;;;% ;;;;;;% ;;;;;;% ;;;;;;% ;;;;;;% ;;;;;;% ",
";;;;;;% ;;;;;;% ;;;;;;% ;;;;;;% ;;;;;;% ;;;;;;% ;;;;;;% ;;;;;;% ",
";;;;;;% ;;;;;;% ;;;;;;% ;;;;;;% ;;;;;;% ;;;;;;% ;;;;;;% ;;;;;;% ",
";;;;;;% ;;;;;;% ;;;;;;% ;;;;;;% ;;;;;;% ;;;;;;% ;;;;;;% ;;;;;;% ",
";;;;;;% ;;;;;;% ;;;;;;% ;;;;;;% ;;;;;;% ;;;;;;% ;;;;;;% ;;;;;;% ",
";;;;;;% ;;;;;;% ;;;;;;% ;;;;;;% ;;;;;;% ;;;;;;% ;;;;;;% ;;;;;;% ",
"                                                                ",
"....... ....... ....... ....... ....... ....... ....... ....... ",
"======. ======. ======. ======. ======. ======. ======. ======. ",
"======. ======. ======. ======. ======. ======. ======. ======. ",
"======. ======. ======. ======. ======. ======. ======. ======. ",
"======. ======. ======. ======. ======. ======. ======. ======. ",
"======. ======. ======. ======. ======. ======. ======. ======. ",
"======. ======. ======. ======. ======. ======. ======. ======. ",
"                                                                ",
"XXXXXXX XXXXXXX XXXXXXX XXXXXXX XXXXXXX XXXXXXX XXXXXXX XXXXXXX ",
"------X ------X ------X ------X ------X ------X ------X ------X ",
"------X ------X ------X ------X ------X ------X ------X ------X ",
"------X ------X ------X ------X ------X ------X ------X ------X ",
"------X ------X ------X ------X ------X ------X ------X ------X ",
"------X ------X ------X ------X ------X ------X ------X ------X ",
"------X ------X ------X ------X ------X ------X ------X ------X ",
"                                                                ",
"ooooooo ooooooo ooooooo ooooooo ooooooo ooooooo ooooooo ooooooo ",
"OOOOOOo OOOOOOo OOOOOOo OOOOOOo OOOOOOo OOOOOOo OOOOOOo OOOOOOo ",
"OOOOOOo OOOOOOo OOOOOOo OOOOOOo OOOOOOo OOOOOOo OOOOOOo OOOOOOo ",
"OOOOOOo OOOOOOo OOOOOOo OOOOOOo OOOOOOo OOOOOOo OOOOOOo OOOOOOo ",
"OOOOOOo OOOOOOo OOOOOOo OOOOOOo OOOOOOo OOOOOOo OOOOOOo OOOOOOo ",
"OOOOOOo OOOOOOo OOOOOOo OOOOOOo OOOOOOo OOOOOOo OOOOOOo OOOOOOo ",
"OOOOOOo OOOOOOo OOOOOOo OOOOOOo OOOOOOo OOOOOOo OOOOOOo OOOOOOo ",
"                                                                ",
"+++++++ +++++++ +++++++ +++++++ +++++++ +++++++ +++++++ +++++++ ",
"@@@@@@+ @@@@@@+ @@@@@@+ @@@@@@+ @@@@@@+ @@@@@@+ @@@@@@+ @@@@@@+ ",
"@@@@@@+ @@@@@@+ @@@@@@+ @@@@@@+ @@@@@@+ @@@@@@+ @@@@@@+ @@@@@@+ ",
"@@@@@@+ @@@@@@+ @@@@@@+ @@@@@@+ @@@@@@+ @@@@@@+ @@@@@@+ @@@@@@+ ",
"@@@@@@+ @@@@@@+ @@@@@@+ @@@@@@+ @@@@@@+ @@@@@@+ @@@@@@+ @@@@@@+ ",
"@@@@@@+ @@@@@@+ @@@@@@+ @@@@@@+ @@@@@@+ @@@@@@+ @@@@@@+ @@@@@@+ ",
"@@@@@@+ @@@@@@+ @@@@@@+ @@@@@@+ @@@@@@+ @@@@@@+ @@@@@@+ @@@@@@+ ",
"                                                                ",
"&&&&&&& &&&&&&& &&&&&&& &&&&&&& &&&&&&& &&&&&&& &&&&&&& &&&&&&& ",
"******& ******& ******& ******& ******& ******& ******& ******& ",
"******& ******& ******& ******& ******& ******& ******& ******& ",
"******& ******& ******& ******& ******& ******& ******& ******& ",
"******& ******& ******& ******& ******& ******& ******& ******& ",
"******& ******& ******& ******& ******& ******& ******& ******& ",
"******& ******& ******& ******& ******& ******& ******& ******& ",
"                                                                ",
"####### ####### ####### ####### ####### ####### ####### ####### ",
"$$$$$$# $$$$$$# $$$$$$# $$$$$$# $$$$$$# $$$$$$# $$$$$$# $$$$$$# ",
"$$$$$$# $$$$$$# $$$$$$# $$$$$$# $$$$$$# $$$$$$# $$$$$$# $$$$$$# ",
"$$$$$$# $$$$$$# $$$$$$# $$$$$$# $$$$$$# $$$$$$# $$$$$$# $$$$$$# ",
"$$$$$$# $$$$$$# $$$$$$# $$$$$$# $$$$$$# $$$$$$# $$$$$$# $$$$$$# ",
"$$$$$$# $$$$$$# $$$$$$# $$$$$$# $$$$$$# $$$$$$# $$$$$$# $$$$$$# ",
"$$$$$$# $$$$$$# $$$$$$# $$$$$$# $$$$$$# $$$$$$# $$$$$$# $$$$$$# ",
"                                                                ",
"%%%%%%% %%%%%%% %%%%%%% %%%%%%% %%%%%%% %%%%%%% %%%%%%% %%%%%%% ",
";;;;;;% ;;;;;;% ;;;;;;% ;;;;;;% ;;;;;;% ;;;;;;% ;;;;;;% ;;;;;;% ",
";;;;;;% ;;;;;;% ;;;;;;% ;;;;;;% ;;;;;;% ;;;;;;% ;;;;;;% ;;;;;;% ",
";;;;;;% ;;;;;;% ;;;;;;% ;;;;;;% ;;;;;;% ;;;;;;% ;;;;;;% ;;;;;;% ",
";;;;;;% ;;;;;;% ;;;;;;% ;;;;;;% ;;;;;;% ;;;;;;% ;;;;;;% ;;;;;;% ",
";;;;;;% ;;;;;;% ;;;;;;% ;;;;;;% ;;;;;;% ;;;;;;% ;;;;;;% ;;;;;;% ",
";;;;;;% ;;;;;;% ;;;;;;% ;;;;;;% ;;;;;;% ;;;;;;% ;;;;;;% ;;;;;;% "
};
