/* XPM */
static char *_ee8032d32ef41d4f345d8122222894bZu8aejfkOGMrwa5L[] = {
/* columns rows colors chars-per-pixel */
"64 64 10 1 ",
"  c gray22",
". c #464646",
"X c #555555",
"o c #656565",
"O c gray46",
"+ c #868686",
"@ c #979797",
"# c #B3BCBC",
"$ c #CFD9D9",
"% c #F6F6F6",
/* pixels */
"@ooXOX  @+o+Xo. O.oXX   @+o+Xo. @ooXOX  @+o+Xo. @ooXOX  @+o+Xo. ",
"@oOoo.. @ooOOX  XX. . . @ooOOX  @oOoo.. @ooOOX  @oOoo.. @ooOOX  ",
"++OXo.  @+o+XoX O.XXo   @+o+XoX ++OXo.  @+o+XoX ++OXo.  @+o+XoX ",
"@oo.XX. +oOooX  Xo.X X  +oOooX  @oo.XX. +oOooX  @oo.XX. +oOooX  ",
"+.oXo.  @o+XoXX O.X X.  @o+XoXX +.oXo.  @o+XoXX +.oXo.  @o+XoXX ",
"+. . .  @OooOo  o. .    @OooOo  +. . .  @OooOo  +. . .  @OooOo  ",
"        @+XOXo.         @+XOXo.         @+XOXo.         @+XOXo. ",
"@@+@@++ @+oOXX. @@+@@++ @+oOXX. @@+@@++ @+oOXX. @@+@@++ @+oOXX. ",
"@+o+Xo. @ooXOX  @+o+Xo. @ooXOX  @+o+Xo. @ooXOX  @+o+Xo. @ooXOX  ",
"@ooOOX  @oOoo.. @ooOOX  @oOoo.. @ooOOX  @oOoo.. @ooOOX  @oOoo.. ",
"@+o+XoX ++OXo.  @+o+XoX ++OXo.  @+o+XoX ++OXo.  @+o+XoX ++OXo.  ",
"+oOooX  @oo.XX. +oOooX  @oo.XX. +oOooX  @oo.XX. +oOooX  @oo.XX. ",
"@o+XoXX +.oXo.  @o+XoXX +.oXo.  @o+XoXX +.oXo.  @o+XoXX +.oXo.  ",
"@OooOo  +. . .  @OooOo  +. . .  @OooOo  +. . .  @OooOo  +. . .  ",
"@+XOXo.         @+XOXo.         @+XOXo.         @+XOXo.         ",
"@+oOXX. @@+@@++ @+oOXX. @@+@@++ @+oOXX. %@+@@++ @+oOXX. @@+@@++ ",
"@ooXOX  @+o+Xo. @ooXOX  @+o+Xo. @ooXOX  %%o+Xo. @ooXOX  @+o+Xo. ",
"@oOoo.. @ooOOX  @oOoo.. @ooOOX  @oOoo.. %%%OOX  @oOoo.. @ooOOX  ",
"++OXo.  @+o+XoX ++OXo.  @+o+XoX ++OXo.  %%%%XoX ++OXo.  @+o+XoX ",
"@oo.XX. +oOooX  @oo.XX. +oOooX  @oo.XX. %%%%%X  @oo.XX. +oOooX  ",
"+.oXo.  @o+XoXX +.oXo.  @o+XoXX +.oXo.  %%%%%%X +.oXo.  @o+XoXX ",
"+. . .  @OooOo  +. . .  @OooOo  +. . .  %%%%%$$ +. . .  @OooOo  ",
"        @+XOXo.         @+XOXo.         %%%%%%$#        @+XOXo. ",
"@@+@@++ @+oOXX. %%%%%%%#%%%%%$$#%%%%%%%#%%%%%$$#%@+@@++ @+oOXX. ",
"@+o+Xo. @ooXOX  %%%%%%$#%%%%%%$#%%%%%%$#%%%%%%$#%%o+Xo. @ooXOX  ",
"@ooOOX  @oOoo.. %%%%%$$#%%%%%$$#%%%%%$$#%%%%%$$#%%%OOX  @oOoo.. ",
"@+o+XoX ++OXo.  %%%%%%$#%%%%%%$#%%%%%%$#%%%%%%$#%%%%XoX ++OXo.  ",
"+oOooX  @oo.XX. %%%%%$$#%%%%%$$#%%%%%$$#%%%%%$$#%%%%%X  @oo.XX. ",
"@o+XoXX +.oXo.  %%%%%%$#%%$%$%$#%%%%%%$#%%$%$%$#%%%%%%X +.oXo.  ",
"@OooOo  +. . .  %%%%%$$#%$$$$$$#%%%%%$$#%$$$$$$#%%%%%$$ +. . .  ",
"@+XOXo.         %%%%%%$#########%%%%%%$#########%%%%%%$#        ",
"@+oOXX. @@+@@++ %%%%%$$#%%%%%%%#%%%%%$$#%%%%%%%#%%%%%$$#@@+@@++ ",
"@ooXOX  @+o+Xo. %%%%%%$#%%%%%%$#%%%%%%$#%%%%%%$#%%%%%%$ @+o+Xo. ",
"@oOoo.. @ooOOX  %%%%%$$#%%%%%$$#%%%%%$$#%%%%%$$#%%%%%$. @ooOOX  ",
"++OXo.  @+o+XoX %%%%%%$#%%%%%%$#%%%%%%$#%%%%%%$#%%%%%.  @+o+XoX ",
"@oo.XX. +oOooX  %%%%%$$#%%%%%$$#%%%%%$$#%%%%%$$#%%%%XX. +oOooX  ",
"+.oXo.  @o+XoXX %%$%$%$#%%%%%%$#%%$%$%$#%%%%%%$#%$%Xo.  @o+XoXX ",
"+. . .  @OooOo  %$$$$$$#%%%%%$$#%$$$$$$#%%%%%$$#%$ . .  @OooOo  ",
"        @+XOXo. ########%%%%%%$#########%%%%%%$##       @+XOXo. ",
"OoOXOoo @+oOXX. @@+@@++ @+oOXX. @@+@@++ %%%%%$$#@@+@@++ @+oOXX. ",
"OXoO .. @ooXOX  @+o+Xo. @ooXOX  @+o+Xo. %%%%%%$ @+o+Xo. @ooXOX  ",
"oX XXo  @oOoo.. @ooOOX  @oOoo.. @ooOOX  %%%%%$. @ooOOX  @oOoo.. ",
"o.o X X ++OXo.  @+o+XoX ++OXo.  @+o+XoX %%%%%.  @+o+XoX ++OXo.  ",
"oXX.o.  @oo.XX. +oOooX  @oo.XX. +oOooX  %%%%XX. +oOooX  @oo.XX. ",
"Xo..X X +.oXo.  @o+XoXX +.oXo.  @o+XoXX %$%Xo.  @o+XoXX +.oXo.  ",
"OXXXXo  +. . .  @OooOo  +. . .  @OooOo  %$ . .  @OooOo  +. . .  ",
"o.X X..         @+XOXo.         @+XOXo. #       @+XOXo.         ",
"OX.X X  @@+@@++ @+oOXX. @@+@@++ @+oOXX. @@+@@++ @+oOXX. @@+@@++ ",
"O.oXX   @+o+Xo. @ooXOX  @+o+Xo. @ooXOX  @+o+Xo. @ooXOX  @+o+Xo. ",
"XX. . . @ooOOX  @oOoo.. @ooOOX  @oOoo.. @ooOOX  @oOoo.. @ooOOX  ",
"O.XXo   @+o+XoX ++OXo.  @+o+XoX ++OXo.  @+o+XoX ++OXo.  @+o+XoX ",
"Xo.X X  +oOooX  @oo.XX. +oOooX  @oo.XX. +oOooX  @oo.XX. +oOooX  ",
"O.X X.  @o+XoXX +.oXo.  @o+XoXX +.oXo.  @o+XoXX +.oXo.  @o+XoXX ",
"o. .    @OooOo  +. . .  @OooOo  +. . .  @OooOo  +. . .  @OooOo  ",
"        @+XOXo.         @+XOXo.         @+XOXo.         @+XOXo. ",
"@@+@@++ @+oOXX. @@+@@++ @+oOXX. @@+@@++ @+oOXX. @@+@@++ @+oOXX. ",
"@+o+Xo. @ooXOX  @+o+Xo. @ooXOX  @+o+Xo. @ooXOX  @+o+Xo. @ooXOX  ",
"@ooOOX  @oOoo.. @ooOOX  @oOoo.. @ooOOX  @oOoo.. @ooOOX  @oOoo.. ",
"@+o+XoX ++OXo.  @+o+XoX ++OXo.  @+o+XoX ++OXo.  @+o+XoX ++OXo.  ",
"+oOooX  @oo.XX. +oOooX  @oo.XX. +oOooX  @oo.XX. +oOooX  @oo.XX. ",
"@o+XoXX +.oXo.  @o+XoXX +.oXo.  @o+XoXX +.oXo.  @o+XoXX +.oXo.  ",
"@OooOo  +. . .  @OooOo  +. . .  @OooOo  +. . .  @OooOo  +. . .  ",
"@+XOXo.         @+XOXo.         @+XOXo.         @+XOXo.         ",
"@+oOXX. @@+@@++ @+oOXX. @@+@@++ @+oOXX. @@+@@++ @+oOXX. @@+@@++ "
};
