/* XPM */
static char *_bcc4b8fe16e47c4f6fc0ca8a8de6aa01tgoRGsmFbqNVYdg[] = {
/* columns rows colors chars-per-pixel */
"64 80 14 1 ",
"  c None",
". c #003535",
"X c #355B5B",
"o c #BD0000",
"O c #F96B6B",
"+ c #C48B00",
"@ c #E0A92B",
"# c #B0836B",
"$ c #37ACBB",
"% c #D9B099",
"& c #F9BDBD",
"* c #EDC4AF",
"= c #D2EDED",
"- c #F9F9F9",
/* pixels */
"                                                                ",
"                                                                ",
"                                                                ",
"                                                                ",
"                                                                ",
"                                                                ",
"                                                                ",
"                                                                ",
"                              ....                              ",
"                              ....                              ",
"                          ....----....                          ",
"                          ....----....                          ",
"                      ....--&&....&&--....                      ",
"                      ....--&&....&&--....                      ",
"                    ..++++@@@@@@@@@@@@++++..                    ",
"                    ..++++@@@@@@@@@@@@++++..                    ",
"                ....++@@@@++++@@@@++++@@@@++....                ",
"                ....++@@@@++++@@@@++++@@@@++....                ",
"              ..++@@@@@@++....++++....++@@@@@@++..              ",
"              ..++@@@@@@++....++++....++@@@@@@++..              ",
"                ..++@@++..****....****..++@@++..                ",
"                ..++@@++..****....****..++@@++..                ",
"                ..++++..**..********..**..++++..                ",
"                ..++++..**..********..**..++++..                ",
"                  ....%%..--..****..--..%%....                  ",
"                  ....%%..--..****..--..%%....                  ",
"                  ..--%%**$$..****..$$**%%--..                  ",
"                  ..--%%**$$..****..$$**%%--..                  ",
"                  ....##**....****....**##....                  ",
"                  ....##**....****....**##....                  ",
"                ..----..%%************%%..----..                ",
"                ..----..%%************%%..----..                ",
"                ..----....%%OOOOOOOO%%....----..                ",
"                ..----....%%OOOOOOOO%%....----..                ",
"                ..====....##%%oooo%%##....====..                ",
"                ..====....##%%oooo%%##....====..                ",
"              ..====....++..##%%%%##..++....====..              ",
"              ..====....++..##%%%%##..++....====..              ",
"            ..==--====..OOOO........OOOO..====--==..            ",
"            ..==--====..OOOO........OOOO..====--==..            ",
"            ....==....OOooooOOOOOOOOooooOO....==....            ",
"            ....==....OOooooOOOOOOOOooooOO....==....            ",
"            ..%%..%%..ooooOOooooooooOOoooo..%%..%%..            ",
"            ..%%..%%..ooooOOooooooooOOoooo..%%..%%..            ",
"            ..%%**%%..ooOO&&&&&&&&&&&&OOoo..%%**%%..            ",
"            ..%%**%%..ooOO&&&&&&&&&&&&OOoo..%%**%%..            ",
"              ..%%......ooOOOOOOOOOOOOoo......%%..              ",
"              ..%%......ooOOOOOOOOOOOOoo......%%..              ",
"                  ooOOoo..oooooooooooo..ooOOoo                  ",
"                  ooOOoo..oooooooooooo..ooOOoo                  ",
"                oo&&&&OOOO&&OO&&&&OO&&OOOO&&&&oo                ",
"                oo&&&&OOOO&&OO&&&&OO&&OOOO&&&&oo                ",
"              ooooOOOOOO&&OO&&OOOO&&OO&&OOOOOOoooo              ",
"              ooooOOOOOO&&OO&&OOOO&&OO&&OOOOOOoooo              ",
"              oooooooo&&OOOO&&OOOO&&OOOO&&oooooooo              ",
"              oooooooo&&OOOO&&OOOO&&OOOO&&oooooooo              ",
"        ooooooooooooOOooooooOOooooOOooooooOOoooooooooooo        ",
"        ooooooooooooOOooooooOOooooOOooooooOOoooooooooooo        ",
"      oo&&OOOOooooooOOooooOOooooooooOOooooOOooooooOOOO&&oo      ",
"      oo&&OOOOooooooOOooooOOooooooooOOooooOOooooooOOOO&&oo      ",
"      ooOOOOooOOooooOOooooOOooooooooOOooooOOooooOOooOOOOoo      ",
"      ooOOOOooOOooooOOooooOOooooooooOOooooOOooooOOooOOOOoo      ",
"        ooooOO&&OOooooooooooooooooooooooooooooOO&&OOoooo        ",
"        ooooOO&&OOooooooooooooooooooooooooooooOO&&OOoooo        ",
"          ooooOOoooooooooo==oooooooo==ooooooooooOOoooo          ",
"          ooooOOoooooooooo==oooooooo==ooooooooooOOoooo          ",
"            oooooooo  oo======XXXX======oo  oooooooo            ",
"            oooooooo  oo======XXXX======oo  oooooooo            ",
"                      XX==--==XXXX==--==XX                      ",
"                      XX==--==XXXX==--==XX                      ",
"                        XX==XX    XX==XX                        ",
"                        XX==XX    XX==XX                        ",
"                                                                ",
"                                                                ",
"                                                                ",
"                                                                ",
"                                                                ",
"                                                                ",
"                                                                ",
"                                                                "
};
