/* XPM */
static char *fda138fca7da4309acd6d87a0f63c01e0gb8Crojqvli3Eer[] = {
/* columns rows colors chars-per-pixel */
"64 64 6 1 ",
"  c None",
". c black",
"X c #008900",
"o c #3EE13E",
"O c #79D1F8",
"+ c #F8F8F8",
/* pixels */
"                                                                ",
"                                                                ",
"                                                                ",
"                                                                ",
"                                                                ",
"                                                                ",
"                                                                ",
"                                                                ",
"                                                                ",
"                                                                ",
"                                                                ",
"                                                                ",
"                                                                ",
"                                                                ",
"                                                                ",
"                                                                ",
"                                                                ",
"                                                                ",
"                                                                ",
"                                                                ",
"                                                                ",
"                                                                ",
"                                                                ",
"                                                                ",
"                                                                ",
"                                                                ",
"                                                                ",
"                                                                ",
"                                                                ",
"                                                                ",
"                                                                ",
"                                                                ",
"                                                                ",
"                                                                ",
"                                                                ",
"                                                                ",
"                                                                ",
"                                                                ",
"                                                                ",
"                                                                ",
"                                                                ",
"                                                                ",
"                                                                ",
"                                                                ",
"                                                                ",
"                                                                ",
"                                                                ",
"                                                                ",
"                              X.XX.X                            ",
"                             X.o++o.X                           ",
"                            ..XooooX..                          ",
"                           XXo.XooX.oXX                         ",
"                           XXoo.XX.ooXX                         ",
"                          XXoooo..ooooXX                        ",
"                          XXooo.oo.oooXX                        ",
"                          .XXX.XooX.XXX.                        ",
"                          XXX.XooooX.X.X                        ",
"                         O...XoXXXXoX...O                       ",
"                         O++.XX++++XX.++O                       ",
"                         .OO+++OOOO+++OO.                       ",
"                          ..OOO....OOO..                        ",
"                          .O..........O.                        ",
"                           .OOO....OOO.                         ",
"                            ...OOOO...                          "
};
