/* XPM */
static char *f65cde543d564793faa1e1d9ff4171464KIcY6ppRhRALmT3[] = {
/* columns rows colors chars-per-pixel */
"64 64 6 1 ",
"  c None",
". c black",
"X c #008900",
"o c #3EE13E",
"O c #79D1F8",
"+ c #F8F8F8",
/* pixels */
"                                                                ",
"                                                                ",
"                                                                ",
"                                                                ",
"                                                                ",
"                                                                ",
"                                                                ",
"                                                                ",
"                                                                ",
"                                                                ",
"                                                                ",
"                                                                ",
"                                                                ",
"                                                                ",
"                                                                ",
"                                                                ",
"                                                                ",
"                                                                ",
"                                                                ",
"                                                                ",
"                                                                ",
"                                                                ",
"                                                                ",
"                                                                ",
"                                                                ",
"                                                                ",
"                                                                ",
"                                                                ",
"                                                                ",
"                                                                ",
"                                                                ",
"                                                                ",
"                                                                ",
"                                                                ",
"                                                                ",
"                                                                ",
"                                                                ",
"                                                                ",
"                                                                ",
"                                                                ",
"                                                                ",
"                                                                ",
"                                                                ",
"                                                                ",
"                                                                ",
"                                                                ",
"                                                                ",
"                                                                ",
"                              X.XX.X                            ",
"                             XX++o.XX                           ",
"                            XooX...oXX                          ",
"                           Xooo.ooo.XX.                         ",
"                           .oo.ooooo.X.                         ",
"                          Xo..XoooooX.X                         ",
"                          X.oX.XoooX.XXX                        ",
"                         O.oooX.XXX.oX.X                        ",
"                         OOXXooo...oooX.X                       ",
"                         .O++XX.ooo.XXXO.                       ",
"                          ..O+.XXXXX+++O.                       ",
"                         .O..O++++++OOO.                        ",
"                         .O....OOOOO...                         ",
"                          .OO.......OO.                         ",
"                           ..OOOOOOO..                          ",
"                             .......                            "
};
