/* XPM */
static char *_681f08c78264352f85953486da59829fsA5XoIIHHvE2jG2[] = {
/* columns rows colors chars-per-pixel */
"64 64 6 1 ",
"  c None",
". c black",
"X c #008900",
"o c #3EE13E",
"O c #79D1F8",
"+ c #F8F8F8",
/* pixels */
"                                                                ",
"                                                                ",
"                                                                ",
"                                                                ",
"                                                                ",
"                                                                ",
"                                                                ",
"                                                                ",
"                                                                ",
"                                                                ",
"                                                                ",
"                                                                ",
"                                                                ",
"                                                                ",
"                                                                ",
"                                                                ",
"                                                                ",
"                                                                ",
"                                                                ",
"                                                                ",
"                                                                ",
"                                                                ",
"                                                                ",
"                                                                ",
"                                                                ",
"                                                                ",
"                                                                ",
"                                                                ",
"                                                                ",
"                                                                ",
"                                                                ",
"                                                                ",
"                                                                ",
"                                                                ",
"                                                                ",
"                                                                ",
"                                                                ",
"                                                                ",
"                                                                ",
"                                                                ",
"                                                                ",
"                                                                ",
"                                                                ",
"                                                                ",
"                                                                ",
"                                                                ",
"                                                                ",
"                                                                ",
"                                X.XX.X                          ",
"                               XX.o++XX                         ",
"                              XXo...XooX                        ",
"                             .XX.ooo.oooX                       ",
"                             .X.ooooo.oo.                       ",
"                             X.XoooooX..oX                      ",
"                            XXX.XoooX.Xo.X                      ",
"                            X.Xo.XXX.Xooo.O                     ",
"                           X.Xooo...oooXXOO                     ",
"                           .OXXX.ooo.XX++O.                     ",
"                           .O+++XXXXX.+O..                      ",
"                            .OOO++++++O..O.                     ",
"                             ...OOOOO....O.                     ",
"                             .OO.......OO.                      ",
"                              ..OOOOOOO..                       ",
"                                .......                         "
};
